####
#
# OBJ File Generated by Meshlab
#
####
# Object 17.obj
#
# Vertices: 182
# Faces: 166
#
####
mtllib ./17.obj.mtl

vn 0.000000 -1.000000 2.000000
v 0.463643 0.550104 0.431372
vn 2.000000 -2.000000 1.000000
v 0.493021 0.550104 0.431372
vn 0.000000 2.000000 1.000000
v 0.463643 0.883092 0.431372
vn 1.000000 1.000000 2.000000
v 0.493021 0.883092 0.431372
vn 0.000000 1.000000 -2.000000
v 0.463643 0.883092 -0.431372
vn 2.000000 2.000000 -1.000000
v 0.493021 0.883092 -0.431372
vn 0.000000 -2.000000 -1.000000
v 0.463643 0.550104 -0.431372
vn 1.000000 -1.000000 -2.000000
v 0.493021 0.550104 -0.431372
vn 0.000000 -1.000000 2.000000
v 0.463643 0.200037 0.431372
vn 2.000000 -2.000000 1.000000
v 0.493021 0.200037 0.431372
vn 0.000000 2.000000 1.000000
v 0.463643 0.533025 0.431372
vn 1.000000 1.000000 2.000000
v 0.493021 0.533025 0.431372
vn 0.000000 1.000000 -2.000000
v 0.463643 0.533025 -0.431372
vn 2.000000 2.000000 -1.000000
v 0.493021 0.533025 -0.431372
vn 0.000000 -2.000000 -1.000000
v 0.463643 0.200037 -0.431372
vn 1.000000 -1.000000 -2.000000
v 0.493021 0.200037 -0.431372
vn -4.933350 -0.933341 1.717960
v -0.227147 0.919495 0.463643
vn 4.358991 -2.800023 2.717982
v 0.463643 0.919495 0.463643
vn -4.933350 -0.933341 -1.717960
v -0.227147 0.919495 -0.463643
vn 2.717982 -3.733364 -2.717982
v 0.463643 0.919495 -0.463643
vn -2.000000 -2.000000 -2.000000
v -0.227147 0.000000 -0.463643
vn 2.000000 -1.000000 -1.000000
v 0.463643 0.000000 -0.463643
vn 1.000000 -2.000000 1.000000
v 0.463643 0.000000 0.463643
vn -2.000000 -1.000000 2.000000
v -0.227147 0.000000 0.463643
vn -4.000000 -1.000000 1.000000
v -0.227147 0.178675 -0.405525
vn -1.000000 -1.000000 2.000000
v -0.227147 0.000000 -0.405525
vn 1.000000 -2.000000 1.000000
v 0.463643 0.000000 -0.405525
vn 4.000000 -2.000000 2.000000
v 0.463643 0.178675 -0.405525
vn -3.000000 -2.000000 -2.000000
v -0.227147 0.178675 0.405525
vn -1.000000 -2.000000 -1.000000
v -0.227147 0.000000 0.405525
vn 2.000000 -1.000000 -2.000000
v 0.463643 0.000000 0.405525
vn 2.000000 -1.000000 -1.000000
v 0.463643 0.178675 0.405525
vn -3.866699 2.933350 1.076906
v -0.227147 0.961205 0.463643
vn 0.358969 3.800049 0.717938
v 0.463643 0.961205 0.463643
vn 0.717938 5.733398 -0.717938
v 0.463643 0.961205 -0.463643
vn -2.866699 1.933350 -1.076906
v -0.227147 0.961205 -0.463643
vn -1.866699 -1.866682 3.435920
v -0.213164 0.933479 0.500000
vn 2.717982 -2.800023 1.358991
v 0.500000 0.933479 0.500000
vn 1.717937 2.800049 2.358969
v 0.500000 0.947222 0.500000
vn -0.933350 1.866699 2.076906
v -0.213164 0.947222 0.500000
vn 1.358991 -1.866682 -2.358991
v 0.500000 0.933479 -0.500000
vn 2.358969 1.866699 -1.358969
v 0.500000 0.947222 -0.500000
vn -1.866699 -1.866682 -2.435920
v -0.213164 0.933479 -0.500000
vn -0.933350 1.866699 -3.076906
v -0.213164 0.947222 -0.500000
vn -0.029781 -2.000000 1.000000
v 0.463643 0.000000 0.463643
vn -2.060267 1.000000 2.000000
v 0.463643 0.183243 0.463643
vn -1.060267 2.000000 -1.000000
v 0.463643 0.183243 -0.463643
vn -0.029781 -1.000000 -2.000000
v 0.463643 0.000000 -0.463643
vn -0.045021 -2.439120 -1.388861
v 0.463643 0.000000 0.301121
vn -0.045021 -2.719560 0.694430
v 0.463643 0.000000 -0.301121
vn -0.006290 -2.913095 0.663648
v 0.463643 0.070187 -0.204533
vn -0.007841 -2.733071 1.207031
v 0.463643 0.064595 -0.223418
vn -0.008957 -2.452676 1.706146
v 0.463643 0.055504 -0.240891
vn -0.019940 -2.221902 2.011157
v 0.463643 0.043247 -0.256309
vn -2.002706 -2.990801 0.191607
v 0.463643 0.072074 -0.184927
vn -0.008957 -2.557006 -1.545404
v 0.463643 0.055504 0.240891
vn -0.007841 -2.804815 -1.029371
v 0.463643 0.064595 0.223418
vn -0.006290 -2.949651 -0.475525
v 0.463643 0.070187 0.204532
vn -1.002705 -2.995400 -0.095808
v 0.463643 0.072074 0.184927
vn -0.019940 -2.285124 -1.939022
v 0.463643 0.043247 0.256309
vn 0.045021 -2.719560 -0.694430
v 0.489066 0.000000 0.301121
vn 0.029781 -1.000000 2.000000
v 0.489066 0.000000 0.463643
vn 2.060267 2.000000 1.000000
v 0.489066 0.183243 0.463643
vn 0.019940 -2.221902 -2.011157
v 0.489066 0.043247 0.256309
vn 0.029781 -2.000000 -1.000000
v 0.489066 0.000000 -0.463643
vn 0.045021 -2.439120 1.388861
v 0.489066 0.000000 -0.301121
vn 1.060267 1.000000 -2.000000
v 0.489066 0.183243 -0.463643
vn 0.019940 -2.285124 1.939022
v 0.489066 0.043247 -0.256309
vn 1.002705 -2.990800 -0.191616
v 0.489066 0.072074 0.184927
vn 2.002706 -2.995400 0.095803
v 0.489066 0.072074 -0.184927
vn 0.006290 -2.949648 0.475529
v 0.489066 0.070187 -0.204533
vn 0.007841 -2.804806 1.029399
v 0.489066 0.064595 -0.223418
vn 0.008957 -2.557006 1.545404
v 0.489066 0.055504 -0.240891
vn 0.008957 -2.452676 -1.706146
v 0.489066 0.055504 0.240891
vn 0.007841 -2.733075 -1.207017
v 0.489066 0.064595 0.223418
vn 0.006290 -2.913103 -0.663625
v 0.489066 0.070187 0.204532
vn 0.702575 -1.355130 -0.203556
v 0.539421 0.690493 -0.025144
vn 0.867899 -0.590979 -1.053743
v 0.522528 0.685243 -0.065827
vn 0.828622 0.629858 -1.705023
v 0.493021 0.681479 -0.081366
vn 0.413979 0.313932 0.851640
v 0.493021 0.681479 0.081366
vn 1.055577 0.177402 1.806085
v 0.522528 0.685243 0.065827
vn 0.691712 -1.356239 0.253403
v 0.539421 0.690493 0.025144
vn 0.713408 -1.353992 0.051308
v 0.540357 0.687260 0.000000
vn 5.050424 2.552958 -1.030946
v 0.531703 0.725262 -0.020342
vn 3.401060 2.920947 -3.281319
v 0.517922 0.724731 -0.053255
vn 0.962588 1.841779 -2.024505
v 0.493021 0.723970 -0.065827
vn 1.103258 1.394779 2.292327
v 0.493021 0.723970 0.065827
vn 3.445796 2.963010 3.103258
v 0.517922 0.724731 0.053255
vn 5.043845 2.575621 0.964049
v 0.531703 0.725262 0.020342
vn 5.313260 2.481181 -0.022864
v 0.531489 0.725188 0.000000
vn 3.237583 3.602053 -0.688352
v 0.522317 0.737840 -0.014779
vn 1.252422 2.170899 -1.471102
v 0.512393 0.737840 -0.038692
vn 0.274035 0.763283 -0.585693
v 0.493021 0.737840 -0.047826
vn 0.548008 1.526210 1.171254
v 0.493021 0.737840 0.047826
vn 1.682581 2.051675 1.185285
v 0.512393 0.737840 0.038692
vn 2.813126 2.708539 0.309011
v 0.522317 0.737840 0.014779
vn 3.937752 4.377439 0.079597
v 0.521548 0.737840 0.000000
vn 0.516542 0.854801 -0.056301
v 0.493021 0.754841 -0.003674
vn 0.000370 0.001310 -0.000366
v 0.493021 0.745917 -0.014667
vn 0.000152 0.000642 -0.000156
v 0.493021 0.744663 -0.029444
vn 0.000152 0.000642 0.000156
v 0.493021 0.744663 0.029444
vn 0.000370 0.001310 0.000366
v 0.493021 0.745917 0.014667
vn 1.032996 1.709280 0.112341
v 0.493021 0.754841 0.003674
vn 1.549363 2.563437 -0.056040
v 0.493021 0.756516 0.000000
vn -2.062305 -2.056170 0.524961
v 0.492038 0.740410 -0.003666
vn -0.663241 -0.693214 0.290196
v 0.492055 0.740417 -0.014311
vn -1.325828 -1.384434 -0.578629
v 0.492055 0.740418 0.014309
vn -2.136895 -2.038661 -0.184496
v 0.492039 0.740410 0.003662
vn -2.211455 -2.021181 -0.051918
v 0.492024 0.740413 -0.000001
vn 0.000385 -0.000081 -0.000041
v 0.493021 0.675142 0.087703
vn 0.000141 -0.000040 -0.000030
v 0.493021 0.681479 0.079213
vn 0.003454 0.000166 0.000267
v 0.497730 0.709829 0.063520
vn 0.001322 0.000318 0.000186
v 0.493021 0.705128 0.105016
vn 0.000622 0.000041 0.000071
v 0.493021 0.698792 0.111352
vn 0.000868 0.000000 0.000082
v 0.493021 0.690135 0.113672
vn 0.000963 -0.000041 0.000071
v 0.493021 0.681479 0.111352
vn 0.000879 -0.000071 0.000041
v 0.493021 0.675142 0.105016
vn 0.000641 -0.000082 0.000000
v 0.493021 0.672823 0.096359
vn 0.001088 0.000288 0.000156
v 0.493021 0.738278 0.043923
vn 0.000385 -0.000081 0.000041
v 0.493021 0.675142 -0.087703
vn 0.000141 -0.000040 0.000030
v 0.493021 0.681479 -0.079213
vn 0.003454 0.000166 -0.000267
v 0.497730 0.709829 -0.063520
vn 0.001322 0.000318 -0.000186
v 0.493021 0.705128 -0.105016
vn 0.000622 0.000041 -0.000071
v 0.493021 0.698792 -0.111352
vn 0.000868 0.000000 -0.000082
v 0.493021 0.690135 -0.113672
vn 0.000963 -0.000041 -0.000071
v 0.493021 0.681479 -0.111352
vn 0.000879 -0.000071 -0.000041
v 0.493021 0.675142 -0.105016
vn 0.000641 -0.000082 0.000000
v 0.493021 0.672823 -0.096359
vn 0.001088 0.000288 -0.000156
v 0.493021 0.738278 -0.043923
vn 0.702559 -1.355116 -0.203616
v 0.539421 0.364213 -0.025144
vn 0.867874 -0.590968 -1.053757
v 0.522528 0.358964 -0.065827
vn 0.828603 0.629860 -1.705031
v 0.493021 0.355199 -0.081366
vn 0.413970 0.313933 0.851644
v 0.493021 0.355199 0.081366
vn 1.055557 0.177402 1.806100
v 0.522528 0.358964 0.065827
vn 0.691709 -1.356246 0.253422
v 0.539421 0.364213 0.025144
vn 0.713406 -1.353993 0.051291
v 0.540357 0.360980 0.000000
vn 5.050468 2.552911 -1.030970
v 0.531703 0.398982 -0.020342
vn 3.401070 2.920902 -3.281331
v 0.517922 0.398452 -0.053255
vn 0.962561 1.841761 -2.024543
v 0.493021 0.397690 -0.065827
vn 1.103230 1.394771 2.292352
v 0.493021 0.397690 0.065827
vn 3.445792 2.962972 3.103281
v 0.517922 0.398452 0.053255
vn 5.043895 2.575567 0.964063
v 0.531703 0.398982 0.020342
vn 5.313292 2.481135 -0.022852
v 0.531489 0.398909 0.000000
vn 3.237628 3.602005 -0.688361
v 0.522317 0.411561 -0.014779
vn 1.252422 2.170862 -1.471132
v 0.512393 0.411561 -0.038692
vn 0.274026 0.763273 -0.585710
v 0.493021 0.411561 -0.047826
vn 0.547990 1.526190 1.171288
v 0.493021 0.411561 0.047826
vn 1.682608 2.051629 1.185294
v 0.512393 0.411561 0.038692
vn 2.813164 2.708496 0.309041
v 0.522317 0.411561 0.014779
vn 3.937782 4.377401 0.079580
v 0.521548 0.411561 0.000000
vn 0.516542 0.854801 -0.056301
v 0.493021 0.428562 -0.003674
vn 0.000370 0.001310 -0.000366
v 0.493021 0.419637 -0.014667
vn 0.000152 0.000642 -0.000156
v 0.493021 0.418383 -0.029444
vn 0.000152 0.000642 0.000156
v 0.493021 0.418383 0.029444
vn 0.000370 0.001310 0.000366
v 0.493021 0.419637 0.014667
vn 1.032996 1.709280 0.112341
v 0.493021 0.428562 0.003674
vn 1.549363 2.563437 -0.056040
v 0.493021 0.430237 0.000000
vn -2.062331 -2.056152 0.524918
v 0.492038 0.414131 -0.003666
vn -0.663252 -0.693208 0.290186
v 0.492055 0.414138 -0.014311
vn -1.325836 -1.384436 -0.578605
v 0.492055 0.414138 0.014309
vn -2.136899 -2.038662 -0.184484
v 0.492039 0.414130 0.003662
vn -2.211465 -2.021167 -0.051962
v 0.492024 0.414133 -0.000001
vn 0.000385 -0.000081 -0.000041
v 0.493021 0.348863 0.087703
vn 0.000141 -0.000040 -0.000030
v 0.493021 0.355199 0.079213
vn 0.003455 0.000166 0.000267
v 0.497730 0.383549 0.063520
vn 0.001322 0.000318 0.000186
v 0.493021 0.378849 0.105016
vn 0.000622 0.000041 0.000071
v 0.493021 0.372512 0.111352
vn 0.000868 0.000000 0.000082
v 0.493021 0.363856 0.113672
vn 0.000963 -0.000041 0.000071
v 0.493021 0.355199 0.111352
vn 0.000879 -0.000071 0.000041
v 0.493021 0.348863 0.105016
vn 0.000641 -0.000082 0.000000
v 0.493021 0.346543 0.096359
vn 0.001088 0.000288 0.000156
v 0.493021 0.411998 0.043923
vn 0.000385 -0.000081 0.000041
v 0.493021 0.348863 -0.087703
vn 0.000141 -0.000040 0.000030
v 0.493021 0.355199 -0.079213
vn 0.003455 0.000166 -0.000267
v 0.497730 0.383549 -0.063520
vn 0.001322 0.000318 -0.000186
v 0.493021 0.378849 -0.105016
vn 0.000622 0.000041 -0.000071
v 0.493021 0.372512 -0.111352
vn 0.000868 0.000000 -0.000082
v 0.493021 0.363856 -0.113672
vn 0.000963 -0.000041 -0.000071
v 0.493021 0.355199 -0.111352
vn 0.000879 -0.000071 -0.000041
v 0.493021 0.348863 -0.105016
vn 0.000641 -0.000082 0.000000
v 0.493021 0.346543 -0.096359
vn 0.001088 0.000288 -0.000156
v 0.493021 0.411998 -0.043923
# 182 vertices, 0 vertices normals


usemtl material_0
vt 0.000000 0.000000
vt 0.000000 0.000000
f 3/1/3 1/1/1 2/1/2 4/2/4
f 5/1/5 3/1/3 4/1/4 6/2/6
f 7/1/7 5/1/5 6/1/6 8/2/8
f 1/1/1 7/1/7 8/1/8 2/2/2
f 4/1/4 2/1/2 8/1/8 6/2/6
f 11/1/11 9/1/9 10/1/10 12/2/12
f 13/1/13 11/1/11 12/1/12 14/2/14
f 15/1/15 13/1/13 14/1/14 16/2/16
f 9/1/9 15/1/15 16/1/16 10/2/10
f 12/1/12 10/1/10 16/1/16 14/2/14
f 23/1/23 18/1/18 17/1/17 24/2/24
f 24/1/24 30/1/30 31/1/31 23/2/23
f 30/1/30 24/1/24 17/1/17 29/2/29
f 19/1/19 20/1/20 22/1/22 21/2/21
f 32/1/32 18/1/18 23/1/23 31/2/31
f 26/1/26 25/1/25 19/1/19 21/2/21
f 26/1/26 21/1/21 22/1/22 27/2/27
f 20/1/20 28/1/28 27/1/27 22/2/22
f 36/1/36 33/1/33 34/1/34 35/2/35
f 19/1/19 25/1/25 29/1/29 17/2/17
f 20/1/20 18/1/18 32/1/32 28/2/28
f 40/1/40 37/1/37 38/1/38 39/2/39
f 39/1/39 38/1/38 41/1/41 42/2/42
f 42/1/42 41/1/41 43/1/43 44/2/44
f 36/1/36 19/1/19 17/1/17 33/2/33
f 39/1/39 34/1/34 33/1/33 40/2/40
f 40/1/40 33/1/33 17/1/17 37/2/37
f 42/1/42 35/1/35 34/1/34 39/2/39
f 41/1/41 20/1/20 19/1/19 43/2/43
f 17/1/17 18/1/18 38/1/38 37/2/37
f 18/1/18 20/1/20 41/1/41 38/2/38
f 19/1/19 36/1/36 44/1/44 43/2/43
f 36/1/36 35/1/35 42/1/42 44/2/44
f 27/1/27 28/1/28 25/1/25 26/2/26
f 30/1/30 29/1/29 32/1/32 31/2/31
vt 0.000000 0.000000
f 32/1/32 29/1/29 25/1/25 28/3/28
f 62/1/62 61/1/61 63/1/63
f 61/1/61 64/1/64 63/1/63
f 66/1/66 65/1/65 67/1/67
f 67/1/67 68/1/68 66/1/66
f 67/1/67 63/1/63 69/1/69 70/3/70
f 67/1/67 70/1/70 71/1/71
f 67/1/67 71/1/71 72/1/72
f 67/1/67 72/1/72 73/1/73
f 67/1/67 73/1/73 68/1/68
f 63/1/63 64/1/64 74/1/74
f 63/1/63 74/1/74 75/1/75
f 63/1/63 75/1/75 76/1/76
f 63/1/63 76/1/76 69/1/69
f 45/1/45 46/1/46 49/1/49
f 49/1/49 46/1/46 60/1/60
f 50/1/50 47/1/47 48/1/48
f 47/1/47 50/1/50 54/1/54
f 59/1/59 46/1/46 47/1/47 55/3/55
f 47/1/47 51/1/51 55/1/55
f 47/1/47 52/1/52 51/1/51
f 47/1/47 53/1/53 52/1/52
f 47/1/47 54/1/54 53/1/53
f 46/1/46 56/1/56 60/1/60
f 46/1/46 57/1/57 56/1/56
f 46/1/46 58/1/58 57/1/57
f 46/1/46 59/1/59 58/1/58
f 62/1/62 45/1/45 49/1/49 61/2/61
f 63/1/63 46/1/46 45/1/45 62/2/62
f 61/1/61 49/1/49 60/1/60 64/2/64
f 66/1/66 50/1/50 48/1/48 65/2/65
f 65/1/65 48/1/48 47/1/47 67/2/67
f 68/1/68 54/1/54 50/1/50 66/2/66
f 69/1/69 59/1/59 55/1/55 70/2/70
f 67/1/67 47/1/47 46/1/46 63/2/63
f 70/1/70 55/1/55 51/1/51 71/2/71
f 71/1/71 51/1/51 52/1/52 72/2/72
f 72/1/72 52/1/52 53/1/53 73/2/73
f 73/1/73 53/1/53 54/1/54 68/2/68
f 64/1/64 60/1/60 56/1/56 74/2/74
f 74/1/74 56/1/56 57/1/57 75/2/75
f 75/1/75 57/1/57 58/1/58 76/2/76
f 76/1/76 58/1/58 59/1/59 69/2/69
f 77/1/77 78/1/78 85/1/85 84/2/84
f 78/1/78 79/1/79 86/1/86 85/2/85
f 80/1/80 81/1/81 88/1/88 87/2/87
f 81/1/81 82/1/82 89/1/89 88/2/88
f 82/1/82 83/1/83 90/1/90 89/2/89
f 83/1/83 77/1/77 84/1/84 90/2/90
f 92/1/92 91/1/91 84/1/84 85/2/85
f 93/1/93 92/1/92 85/1/85 86/2/86
f 95/1/95 94/1/94 87/1/87 88/2/88
f 96/1/96 95/1/95 88/1/88 89/2/89
f 89/1/89 90/1/90 97/1/97 96/2/96
f 90/1/90 84/1/84 91/1/91 97/3/97
f 92/1/92 99/1/99 91/1/91
f 93/1/93 100/1/100 92/1/92
f 95/1/95 102/1/102 101/1/101
f 96/1/96 103/1/103 102/1/102
f 96/1/96 97/1/97 104/1/104 103/2/103
f 97/1/97 91/1/91 98/1/98 104/2/104
f 106/1/106 78/1/78 77/1/77 105/3/105
f 106/1/106 79/1/79 78/1/78
f 81/1/81 80/1/80 107/1/107
f 108/1/108 82/1/82 81/1/81 107/2/107
f 109/1/109 83/1/83 82/1/82 108/2/108
f 105/1/105 77/1/77 83/1/83 109/3/109
f 96/1/96 102/1/102 95/1/95
f 91/1/91 99/1/99 98/1/98
f 95/1/95 101/1/101 94/1/94
f 92/1/92 100/1/100 99/1/99
f 110/1/110 111/1/111 112/1/112
f 113/1/113 114/1/114 112/1/112
f 114/1/114 115/1/115 112/1/112
f 115/1/115 116/1/116 112/1/112
f 116/1/116 117/1/117 112/1/112
f 117/1/117 118/1/118 112/1/112
f 118/1/118 110/1/110 112/1/112
f 113/1/113 112/1/112 119/1/119
f 120/1/120 122/1/122 121/1/121
f 123/1/123 122/1/122 124/1/124
f 124/1/124 122/1/122 125/1/125
f 125/1/125 122/1/122 126/1/126
f 126/1/126 122/1/122 127/1/127
f 127/1/127 122/1/122 128/1/128
f 128/1/128 122/1/122 120/1/120
f 123/1/123 129/1/129 122/1/122
f 130/1/130 131/1/131 138/1/138 137/2/137
f 131/1/131 132/1/132 139/1/139 138/2/138
f 133/1/133 134/1/134 141/1/141 140/2/140
f 134/1/134 135/1/135 142/1/142 141/2/141
f 135/1/135 136/1/136 143/1/143 142/2/142
f 136/1/136 130/1/130 137/1/137 143/2/143
f 145/1/145 144/1/144 137/1/137 138/2/138
f 146/1/146 145/1/145 138/1/138 139/2/139
f 148/1/148 147/1/147 140/1/140 141/2/141
f 149/1/149 148/1/148 141/1/141 142/2/142
f 142/1/142 143/1/143 150/1/150 149/2/149
f 143/1/143 137/1/137 144/1/144 150/3/150
f 145/1/145 152/1/152 144/1/144
f 146/1/146 153/1/153 145/1/145
f 148/1/148 155/1/155 154/1/154
f 149/1/149 156/1/156 155/1/155
f 149/1/149 150/1/150 157/1/157 156/2/156
f 150/1/150 144/1/144 151/1/151 157/2/157
f 159/1/159 131/1/131 130/1/130 158/3/158
f 159/1/159 132/1/132 131/1/131
f 134/1/134 133/1/133 160/1/160
f 161/1/161 135/1/135 134/1/134 160/2/160
f 162/1/162 136/1/136 135/1/135 161/2/161
f 158/1/158 130/1/130 136/1/136 162/3/162
f 149/1/149 155/1/155 148/1/148
f 144/1/144 152/1/152 151/1/151
f 148/1/148 154/1/154 147/1/147
f 145/1/145 153/1/153 152/1/152
f 163/1/163 164/1/164 165/1/165
f 166/1/166 167/1/167 165/1/165
f 167/1/167 168/1/168 165/1/165
f 168/1/168 169/1/169 165/1/165
f 169/1/169 170/1/170 165/1/165
f 170/1/170 171/1/171 165/1/165
f 171/1/171 163/1/163 165/1/165
f 166/1/166 165/1/165 172/1/172
f 173/1/173 175/1/175 174/1/174
f 176/1/176 175/1/175 177/1/177
f 177/1/177 175/1/175 178/1/178
f 178/1/178 175/1/175 179/1/179
f 179/1/179 175/1/175 180/1/180
f 180/1/180 175/1/175 181/1/181
f 181/1/181 175/1/175 173/1/173
f 176/1/176 182/1/182 175/1/175
# 166 faces, 3 coords texture

# End of File
