####
#
# OBJ File Generated by Meshlab
#
####
# Object 19.obj
#
# Vertices: 72
# Faces: 42
#
####
mtllib ./19.obj.mtl

vn -2.000000 -2.000000 1.000000
v -0.281135 0.270511 0.500000
vn -1.000000 -1.000000 -2.000000
v -0.281135 0.270511 -0.500000
vn 2.000000 -2.000000 -1.000000
v 0.281135 0.270511 -0.500000
vn 1.000000 -1.000000 2.000000
v 0.281135 0.270511 0.500000
vn -1.000000 2.000000 2.000000
v -0.281135 0.299907 0.500000
vn -2.000000 1.000000 -1.000000
v -0.281135 0.299907 -0.500000
vn 1.000000 2.000000 -2.000000
v 0.281135 0.299907 -0.500000
vn 2.000000 1.000000 1.000000
v 0.281135 0.299907 0.500000
vn -1.000000 0.000000 2.000000
v -0.248946 0.275029 -0.417602
vn -2.000000 0.000000 -1.000000
v -0.248946 0.275029 -0.463251
vn 1.000000 0.000000 -2.000000
v -0.222583 0.275029 -0.463251
vn 2.000000 0.000000 1.000000
v -0.222583 0.275029 -0.417602
vn -2.000000 -2.000000 1.000000
v -0.248946 -0.107897 -0.417602
vn -1.000000 -1.000000 -2.000000
v -0.248946 -0.107897 -0.463251
vn 1.000000 -1.000000 2.000000
v -0.222583 -0.107897 -0.417602
vn 2.000000 -2.000000 -1.000000
v -0.222583 -0.107897 -0.463251
vn -1.000000 0.000000 2.000000
v 0.221885 0.275029 -0.417602
vn -2.000000 0.000000 -1.000000
v 0.221885 0.275029 -0.463251
vn 1.000000 0.000000 -2.000000
v 0.248248 0.275029 -0.463251
vn 2.000000 0.000000 1.000000
v 0.248248 0.275029 -0.417602
vn -2.000000 -2.000000 1.000000
v 0.221885 -0.107897 -0.417602
vn -1.000000 -1.000000 -2.000000
v 0.221885 -0.107897 -0.463251
vn 1.000000 -1.000000 2.000000
v 0.248248 -0.107897 -0.417602
vn 2.000000 -2.000000 -1.000000
v 0.248248 -0.107897 -0.463251
vn -1.000000 0.000000 2.000000
v -0.248946 0.275029 0.451008
vn -2.000000 0.000000 -1.000000
v -0.248946 0.275029 0.405359
vn 1.000000 0.000000 -2.000000
v -0.222583 0.275029 0.405359
vn 2.000000 0.000000 1.000000
v -0.222583 0.275029 0.451008
vn -2.000000 -2.000000 1.000000
v -0.248946 -0.107897 0.451008
vn -1.000000 -1.000000 -2.000000
v -0.248946 -0.107897 0.405359
vn 1.000000 -1.000000 2.000000
v -0.222583 -0.107897 0.451008
vn 2.000000 -2.000000 -1.000000
v -0.222583 -0.107897 0.405359
vn -1.000000 0.000000 2.000000
v 0.221885 0.275029 0.451008
vn -2.000000 0.000000 -1.000000
v 0.221885 0.275029 0.405359
vn 1.000000 0.000000 -2.000000
v 0.248248 0.275029 0.405359
vn 2.000000 0.000000 1.000000
v 0.248248 0.275029 0.451008
vn -2.000000 -2.000000 1.000000
v 0.221885 -0.107897 0.451008
vn -1.000000 -1.000000 -2.000000
v 0.221885 -0.107897 0.405359
vn 1.000000 -1.000000 2.000000
v 0.248248 -0.107897 0.451008
vn 2.000000 -2.000000 -1.000000
v 0.248248 -0.107897 0.405359
vn 2.000000 -1.000000 0.000000
v -0.249381 0.241114 0.451690
vn 1.000000 -2.000000 0.000000
v -0.249381 0.241114 -0.463271
vn 1.000000 0.000000 0.000000
v -0.249381 0.270511 0.451690
vn 2.000000 0.000000 0.000000
v -0.249381 0.270511 -0.463272
vn -2.000000 -2.000000 0.000000
v -0.258009 0.241114 0.451690
vn -1.000000 -1.000000 0.000000
v -0.258009 0.241114 -0.463271
vn -1.000000 0.000000 0.000000
v -0.258009 0.270511 0.451690
vn -2.000000 0.000000 0.000000
v -0.258009 0.270511 -0.463272
vn 2.000000 -1.000000 0.000000
v 0.257086 0.241114 0.451690
vn 1.000000 -2.000000 0.000000
v 0.257086 0.241114 -0.463271
vn 1.000000 0.000000 0.000000
v 0.257086 0.270511 0.451690
vn 2.000000 0.000000 0.000000
v 0.257086 0.270511 -0.463272
vn -2.000000 -1.999966 -0.000001
v 0.248458 0.241114 0.451690
vn -1.000000 -0.999983 -0.000001
v 0.248458 0.241114 -0.463271
vn -1.000000 0.000017 -0.000001
v 0.248458 0.270511 0.451690
vn -2.000000 0.000034 -0.000001
v 0.248459 0.270511 -0.463272
vn 2.000000 -1.000000 -2.000000
v 0.257086 0.241114 0.451690
vn -1.000000 -2.000000 -1.000000
v -0.258009 0.241114 0.451690
vn 1.000000 0.000000 -1.000000
v 0.257086 0.270511 0.451690
vn -2.000000 0.000000 -2.000000
v -0.258009 0.270511 0.451690
vn 1.000000 -2.000000 2.000000
v 0.257086 0.241114 0.460318
vn -2.000000 -1.000000 1.000000
v -0.258009 0.241114 0.460318
vn 2.000000 0.000000 1.000000
v 0.257086 0.270511 0.460318
vn -1.000000 0.000000 2.000000
v -0.258009 0.270511 0.460318
vn 2.000000 -1.000000 -2.000000
v 0.257086 0.241114 -0.471899
vn -1.000000 -2.000000 -1.000000
v -0.258009 0.241114 -0.471899
vn 1.000000 0.000000 -1.000000
v 0.257086 0.270511 -0.471899
vn -2.000000 0.000000 -2.000000
v -0.258009 0.270511 -0.471899
vn 0.999998 -1.999966 2.000000
v 0.257086 0.241114 -0.463271
vn -2.000001 -0.999983 1.000000
v -0.258009 0.241114 -0.463271
vn 1.999999 0.000017 1.000000
v 0.257086 0.270511 -0.463271
vn -1.000002 0.000034 2.000000
v -0.258009 0.270511 -0.463272
# 72 vertices, 0 vertices normals


usemtl material_0
vt 0.000000 0.000000
vt 0.000000 0.000000
f 4/1/4 1/1/1 2/1/2 3/2/3
f 6/1/6 5/1/5 8/1/8 7/2/7
f 2/1/2 1/1/1 5/1/5 6/2/6
f 3/1/3 2/1/2 6/1/6 7/2/7
f 4/1/4 3/1/3 7/1/7 8/2/8
f 8/1/8 5/1/5 1/1/1 4/2/4
f 15/1/15 13/1/13 14/1/14 16/2/16
f 12/1/12 9/1/9 13/1/13 15/2/15
f 10/1/10 11/1/11 16/1/16 14/2/14
f 9/1/9 10/1/10 14/1/14 13/2/13
f 11/1/11 12/1/12 15/1/15 16/2/16
f 23/1/23 21/1/21 22/1/22 24/2/24
f 20/1/20 17/1/17 21/1/21 23/2/23
f 18/1/18 19/1/19 24/1/24 22/2/22
f 17/1/17 18/1/18 22/1/22 21/2/21
f 19/1/19 20/1/20 23/1/23 24/2/24
f 31/1/31 29/1/29 30/1/30 32/2/32
f 28/1/28 25/1/25 29/1/29 31/2/31
f 26/1/26 27/1/27 32/1/32 30/2/30
f 25/1/25 26/1/26 30/1/30 29/2/29
f 27/1/27 28/1/28 31/1/31 32/2/32
f 39/1/39 37/1/37 38/1/38 40/2/40
f 36/1/36 33/1/33 37/1/37 39/2/39
f 34/1/34 35/1/35 40/1/40 38/2/38
f 33/1/33 34/1/34 38/1/38 37/2/37
f 35/1/35 36/1/36 39/1/39 40/2/40
f 43/1/43 41/1/41 42/1/42 44/2/44
f 46/1/46 45/1/45 47/1/47 48/2/48
f 46/1/46 42/1/42 41/1/41 45/2/45
f 51/1/51 49/1/49 50/1/50 52/2/52
f 54/1/54 53/1/53 55/1/55 56/2/56
f 54/1/54 50/1/50 49/1/49 53/2/53
f 59/1/59 57/1/57 58/1/58 60/2/60
f 62/1/62 61/1/61 63/1/63 64/2/64
f 64/1/64 60/1/60 58/1/58 62/2/62
f 62/1/62 58/1/58 57/1/57 61/2/61
f 61/1/61 57/1/57 59/1/59 63/2/63
f 67/1/67 65/1/65 66/1/66 68/2/68
f 70/1/70 69/1/69 71/1/71 72/2/72
f 72/1/72 68/1/68 66/1/66 70/2/70
f 70/1/70 66/1/66 65/1/65 69/2/69
vt 0.000000 0.000000
f 69/1/69 65/1/65 67/1/67 71/3/71
# 42 faces, 3 coords texture

# End of File
