# Blender v2.82 (sub 7) OBJ File: ''
# www.blender.org
mtllib 15.mtl
o Cloth_15
v 0.010424 0.150567 0.200476
v 0.010260 0.157449 0.200893
v 0.000926 0.153780 0.257788
v 0.001089 0.146897 0.257371
v -0.259755 0.147249 0.263137
v -0.259591 0.140367 0.262721
v -0.271352 0.150397 0.206628
v -0.271188 0.143515 0.206211
v -0.276121 0.159377 -0.058317
v -0.276287 0.166355 -0.057894
v -0.270012 0.170025 -0.116012
v -0.269847 0.163048 -0.116435
v -0.009315 0.176556 -0.121376
v -0.009148 0.169580 -0.121798
v -0.001040 0.173246 -0.063487
v -0.000874 0.166269 -0.063909
v -0.140558 0.081865 -0.291179
v -0.135783 0.027708 -0.123977
v -0.251666 0.065668 -0.119154
v -0.131237 0.040810 0.526139
v -0.122831 0.041021 0.525967
v -0.124492 0.166094 0.597941
v -0.214353 0.077581 -0.249143
v -0.274597 0.193505 -0.153922
v -0.124526 0.000745 0.393700
v -0.127161 0.000000 0.263826
v -0.192768 0.033322 0.397153
v -0.129970 0.006453 0.134390
v -0.243606 0.038360 0.268686
v -0.132854 0.016121 0.005149
v -0.263945 0.045123 0.139653
v -0.266823 0.054485 0.010393
v -0.134285 0.165737 0.598135
v -0.206154 0.163917 0.448241
v -0.265221 0.162357 0.298084
v -0.288922 0.170184 0.147713
v -0.292271 0.180968 -0.002927
v -0.231070 0.205532 -0.305515
v -0.021845 0.071424 -0.123852
v -0.114425 0.041232 0.525795
v -0.006779 0.200213 -0.159397
v -0.064985 0.081322 -0.252196
v -0.057915 0.036700 0.394397
v -0.012681 0.044143 0.263966
v 0.002007 0.051785 0.134217
v -0.000870 0.061146 0.004956
v -0.114693 0.166228 0.597734
v -0.049005 0.167853 0.445029
v 0.003884 0.169098 0.292582
v 0.021002 0.177947 0.141377
v 0.017653 0.188730 -0.009262
v -0.057007 0.209892 -0.309074
v -0.123145 0.043323 0.513413
v -0.129538 0.042944 0.513155
v -0.132053 0.166625 0.580614
v -0.246856 0.067274 -0.112826
v -0.211608 0.078554 -0.236417
v -0.227418 0.205079 -0.288857
v -0.189332 0.034625 0.387835
v -0.201194 0.164322 0.434769
v -0.239108 0.040638 0.261770
v -0.258970 0.162880 0.288454
v -0.258729 0.047339 0.137486
v -0.281589 0.170580 0.144575
v -0.261516 0.056413 0.012602
v -0.284815 0.180980 0.000050
v -0.267820 0.193117 -0.145164
v -0.140323 0.082926 -0.278421
v -0.144097 0.208286 -0.309405
v -0.124894 0.166939 0.579311
v -0.117681 0.166985 0.580321
v -0.026466 0.072794 -0.117331
v -0.013165 0.199496 -0.150371
v -0.059949 0.209274 -0.292280
v -0.116757 0.043265 0.512894
v -0.054526 0.167995 0.431771
v -0.061789 0.037820 0.385228
v -0.002774 0.169296 0.283217
v -0.017567 0.046187 0.257241
v 0.013536 0.177972 0.138542
v -0.003398 0.053734 0.132267
v 0.010332 0.188373 -0.005983
v -0.006172 0.062808 0.007382
v -0.067253 0.082170 -0.239368
v -0.144495 0.208987 -0.328043
v -0.136648 0.064052 -0.121775
v -0.139434 0.080493 -0.237913
v -0.125392 0.037117 0.395903
v -0.128027 0.036358 0.266030
v -0.130835 0.042803 0.136593
v -0.133719 0.052468 0.007350
vn 0.9866 0.0136 0.1627
vn 0.0220 -0.0599 0.9980
vn -0.9794 -0.0354 0.1990
vn -0.0218 0.0600 -0.9980
vn 0.0238 -0.9979 -0.0605
vn -0.0238 0.9979 0.0605
vn -0.9940 -0.0171 -0.1084
vn -0.0220 0.0600 -0.9980
vn 0.9897 0.0321 -0.1396
vn 0.0218 -0.0599 0.9980
vn -0.3091 -0.9073 -0.2851
vn 0.0303 -0.4982 0.8665
vn -0.9259 -0.2445 -0.2882
vn 0.0300 -0.9563 0.2908
vn -0.4302 -0.9026 0.0139
vn -0.3141 -0.9485 -0.0405
vn -0.2791 -0.9580 -0.0654
vn -0.2773 -0.9575 -0.0796
vn -0.8636 -0.2674 0.4275
vn -0.9079 -0.2301 0.3503
vn -0.9689 -0.2026 0.1421
vn -0.9805 -0.1963 0.0076
vn -0.9691 -0.2088 -0.1314
vn -0.4333 -0.4102 -0.8025
vn 0.3422 -0.8910 -0.2984
vn 0.0302 -0.4982 0.8665
vn 0.9244 -0.1981 -0.3260
vn 0.0299 -0.9563 0.2908
vn 0.4750 -0.8800 -0.0046
vn 0.3593 -0.9316 -0.0542
vn 0.3238 -0.9429 -0.0778
vn 0.3214 -0.9425 -0.0919
vn 0.8926 -0.2235 0.3916
vn 0.9319 -0.1840 0.3127
vn 0.9828 -0.1537 0.1022
vn 0.9886 -0.1470 -0.0326
vn 0.9721 -0.1602 -0.1711
vn 0.4202 -0.3888 -0.8199
vn 0.0070 0.4789 -0.8778
vn 0.9289 0.2348 0.2864
vn 0.8709 0.2357 -0.4312
vn 0.9101 0.2240 -0.3487
vn 0.9716 0.1885 -0.1432
vn 0.9831 0.1830 -0.0086
vn 0.9720 0.1955 0.1305
vn 0.4846 0.2236 0.8457
vn 0.1195 0.4684 -0.8754
vn -0.9303 0.1809 0.3192
vn -0.9019 0.2015 -0.3821
vn -0.9315 0.1675 -0.3230
vn -0.9848 0.1400 -0.1026
vn -0.9906 0.1334 0.0316
vn -0.9746 0.1462 0.1699
vn -0.1883 0.3867 0.9028
vn -0.0355 0.9983 0.0461
vn -0.1023 0.9935 0.0494
vn -0.0497 0.9987 0.0117
vn -0.0619 0.9980 0.0140
vn -0.0296 0.9980 0.0566
vn -0.0304 0.9969 0.0720
vn -0.0434 0.9960 0.0776
vn -0.0299 0.9988 0.0382
vn -0.0126 0.9989 0.0456
vn -0.0141 0.9975 0.0692
vn 0.0545 0.9979 0.0341
vn 0.0033 1.0000 0.0093
vn -0.0452 0.9976 0.0533
vn -0.0240 0.9971 0.0719
vn -0.0135 0.9968 0.0784
vn -0.0176 0.9993 0.0337
vn -0.0237 0.9898 0.1407
vn -0.0323 0.9981 -0.0521
vn 0.0388 0.9992 -0.0066
vn 0.0357 0.9982 0.0489
vn 0.0338 0.9967 0.0738
vn 0.0363 0.9954 0.0885
vn -0.0828 0.9911 0.1038
vn 0.0059 0.9992 -0.0401
vn -0.0001 0.9979 0.0652
vn -0.0845 0.9951 0.0505
vn -0.0827 0.9938 0.0740
vn -0.0805 0.9924 0.0926
vn 0.9866 0.0135 0.1627
vn -0.0218 0.0599 -0.9980
vn -0.0220 0.0599 -0.9980
vn 0.9897 0.0320 -0.1396
vn 0.0070 -0.9960 -0.0893
vn 0.0353 -0.4984 0.8663
vn -0.9261 -0.2468 -0.2855
vn -0.4075 -0.8796 0.2454
vn -0.3086 -0.9474 0.0850
vn -0.2776 -0.9607 -0.0066
vn -0.2770 -0.9588 -0.0633
vn -0.3136 -0.9422 -0.1180
vn -0.8710 -0.2538 0.4207
vn -0.9021 -0.2420 0.3574
vn -0.9689 -0.2027 0.1422
vn -0.9805 -0.1965 0.0077
vn -0.9690 -0.2094 -0.1308
vn -0.2315 -0.2776 -0.9324
vn 0.0392 -0.9952 -0.0899
vn 0.0251 -0.4986 0.8665
vn 0.9248 -0.2004 -0.3233
vn 0.4607 -0.8579 0.2277
vn 0.3588 -0.9307 0.0713
vn 0.3248 -0.9456 -0.0189
vn 0.3219 -0.9438 -0.0755
vn 0.3552 -0.9255 -0.1317
vn 0.8990 -0.2095 0.3845
vn 0.9269 -0.1962 0.3200
vn 0.9828 -0.1538 0.1023
vn 0.9886 -0.1471 -0.0325
vn 0.9722 -0.1608 -0.1705
vn 0.2069 -0.2666 -0.9414
vn -0.1785 0.4609 -0.8693
vn 0.9323 0.2275 0.2811
vn 0.8743 0.2460 -0.4184
vn 0.9079 0.2135 -0.3606
vn 0.9716 0.1890 -0.1426
vn 0.9831 0.1829 -0.0088
vn 0.9722 0.1949 0.1301
vn 0.2054 0.3965 0.8948
vn -0.0668 0.4771 -0.8763
vn -0.9270 0.1883 0.3243
vn -0.8985 0.1914 -0.3950
vn -0.9336 0.1778 -0.3110
vn -0.9848 0.1395 -0.1032
vn -0.9905 0.1336 0.0317
vn -0.9744 0.1467 0.1703
vn -0.4602 0.1999 0.8650
vn -0.0354 0.9983 0.0460
vn -0.0369 0.9967 0.0726
vn -0.1098 0.9933 0.0364
vn -0.0522 0.9986 0.0108
vn -0.0009 0.9986 0.0536
vn -0.0228 0.9971 0.0723
vn -0.0333 0.9963 0.0794
vn -0.0301 0.9990 0.0338
vn -0.0128 0.9989 0.0457
vn 0.0634 0.9968 0.0478
vn 0.0046 1.0000 0.0088
vn 0.0117 0.9998 0.0128
vn -0.0186 0.9982 0.0578
vn -0.0164 0.9973 0.0721
vn -0.0027 0.9970 0.0773
vn -0.0194 0.9991 0.0379
vn 0.0373 0.9941 0.1014
vn -0.0575 0.9976 -0.0388
vn -0.0472 0.9967 0.0662
vn 0.0366 0.9982 0.0480
vn 0.0358 0.9968 0.0716
vn 0.0344 0.9953 0.0902
vn -0.0202 0.9899 0.1406
vn -0.0198 0.9984 -0.0524
vn -0.0889 0.9960 -0.0040
vn -0.0836 0.9952 0.0514
vn -0.0806 0.9938 0.0761
vn -0.0824 0.9924 0.0909
usemtl Default_OBJ.005
s off
f 1//1 2//1 3//1
f 4//2 3//2 5//2
f 6//3 5//3 7//3
f 8//4 7//4 2//4
f 8//5 1//5 4//5
f 2//6 7//6 5//6
f 9//7 10//7 11//7
f 12//8 11//8 13//8
f 14//9 13//9 15//9
f 16//10 15//10 10//10
f 16//5 9//5 12//5
f 10//6 15//6 13//6
f 17//11 18//11 19//11
f 20//12 21//12 22//12
f 23//13 19//13 24//13
f 25//14 21//14 20//14
f 26//15 25//15 27//15
f 28//16 26//16 29//16
f 30//17 28//17 31//17
f 18//18 30//18 32//18
f 27//19 20//19 33//19
f 29//20 27//20 34//20
f 31//21 29//21 35//21
f 32//22 31//22 36//22
f 19//23 32//23 37//23
f 17//24 23//24 38//24
f 39//25 18//25 17//25
f 22//26 21//26 40//26
f 41//27 39//27 42//27
f 40//28 21//28 25//28
f 43//29 25//29 26//29
f 44//30 26//30 28//30
f 45//31 28//31 30//31
f 46//32 30//32 18//32
f 47//33 40//33 43//33
f 48//34 43//34 44//34
f 49//35 44//35 45//35
f 50//36 45//36 46//36
f 51//37 46//37 39//37
f 52//38 42//38 17//38
f 53//39 54//39 55//39
f 56//40 57//40 58//40
f 54//41 59//41 60//41
f 59//42 61//42 62//42
f 61//43 63//43 64//43
f 63//44 65//44 66//44
f 65//45 56//45 67//45
f 57//46 68//46 69//46
f 53//47 70//47 71//47
f 72//48 73//48 74//48
f 75//49 71//49 76//49
f 77//50 76//50 78//50
f 79//51 78//51 80//51
f 81//52 80//52 82//52
f 83//53 82//53 73//53
f 84//54 74//54 69//54
f 55//55 33//55 22//55
f 58//56 38//56 24//56
f 60//57 34//57 33//57
f 62//58 35//58 34//58
f 64//59 36//59 35//59
f 66//60 37//60 36//60
f 67//61 24//61 37//61
f 69//62 85//62 38//62
f 70//63 22//63 47//63
f 73//64 41//64 52//64
f 71//65 47//65 48//65
f 76//66 48//66 49//66
f 78//67 49//67 50//67
f 80//68 50//68 51//68
f 82//69 51//69 41//69
f 74//70 52//70 85//70
f 86//71 87//71 57//71
f 53//72 88//72 59//72
f 88//73 89//73 61//73
f 89//74 90//74 63//74
f 90//75 91//75 65//75
f 91//76 86//76 56//76
f 86//77 72//77 84//77
f 53//78 75//78 77//78
f 88//79 77//79 79//79
f 89//80 79//80 81//80
f 90//81 81//81 83//81
f 91//82 83//82 72//82
f 3//83 4//83 1//83
f 5//2 6//2 4//2
f 7//3 8//3 6//3
f 2//84 1//84 8//84
f 4//5 6//5 8//5
f 5//6 3//6 2//6
f 11//7 12//7 9//7
f 13//85 14//85 12//85
f 15//86 16//86 14//86
f 10//10 9//10 16//10
f 12//5 14//5 16//5
f 13//6 11//6 10//6
f 19//87 23//87 17//87
f 22//88 33//88 20//88
f 24//89 38//89 23//89
f 20//90 27//90 25//90
f 27//91 29//91 26//91
f 29//92 31//92 28//92
f 31//93 32//93 30//93
f 32//94 19//94 18//94
f 33//95 34//95 27//95
f 34//96 35//96 29//96
f 35//97 36//97 31//97
f 36//98 37//98 32//98
f 37//99 24//99 19//99
f 38//100 85//100 17//100
f 17//101 42//101 39//101
f 40//102 47//102 22//102
f 42//103 52//103 41//103
f 25//104 43//104 40//104
f 26//105 44//105 43//105
f 28//106 45//106 44//106
f 30//107 46//107 45//107
f 18//108 39//108 46//108
f 43//109 48//109 47//109
f 44//110 49//110 48//110
f 45//111 50//111 49//111
f 46//112 51//112 50//112
f 39//113 41//113 51//113
f 17//114 85//114 52//114
f 55//115 70//115 53//115
f 58//116 67//116 56//116
f 60//117 55//117 54//117
f 62//118 60//118 59//118
f 64//119 62//119 61//119
f 66//120 64//120 63//120
f 67//121 66//121 65//121
f 69//122 58//122 57//122
f 71//123 75//123 53//123
f 74//124 84//124 72//124
f 76//125 77//125 75//125
f 78//126 79//126 77//126
f 80//127 81//127 79//127
f 82//128 83//128 81//128
f 73//129 72//129 83//129
f 69//130 68//130 84//130
f 22//131 70//131 55//131
f 24//132 67//132 58//132
f 33//133 55//133 60//133
f 34//134 60//134 62//134
f 35//135 62//135 64//135
f 36//136 64//136 66//136
f 37//137 66//137 67//137
f 38//138 58//138 69//138
f 47//139 71//139 70//139
f 52//140 74//140 73//140
f 48//141 76//141 71//141
f 49//142 78//142 76//142
f 50//143 80//143 78//143
f 51//144 82//144 80//144
f 41//145 73//145 82//145
f 85//146 69//146 74//146
f 57//147 56//147 86//147
f 59//148 54//148 53//148
f 61//149 59//149 88//149
f 63//150 61//150 89//150
f 65//151 63//151 90//151
f 56//152 65//152 91//152
f 84//153 87//153 86//153
f 77//154 88//154 53//154
f 79//155 89//155 88//155
f 81//156 90//156 89//156
f 83//157 91//157 90//157
f 72//158 86//158 91//158
