# Blender 3.6.5
# www.blender.org
mtllib 17.mtl
o Cloth_17
v 0.206917 0.557072 0.272118
v 0.206917 0.347017 0.272118
v 0.225449 0.347017 0.272118
v 0.225449 0.557072 0.272118
v 0.206917 0.557073 -0.272118
v 0.225449 0.557073 -0.272118
v 0.206917 0.347017 -0.272118
v 0.225449 0.347017 -0.272118
v 0.206917 0.336243 0.272118
v 0.206917 0.126187 0.272118
v 0.225449 0.126187 0.272118
v 0.225449 0.336243 0.272118
v 0.206917 0.336243 -0.272118
v 0.225449 0.336243 -0.272118
v 0.206917 0.126188 -0.272118
v 0.225449 0.126188 -0.272118
v 0.206917 0.000000 0.292475
v 0.206917 0.580036 0.292476
v -0.228848 0.580036 0.292476
v -0.228848 0.000000 0.292475
v -0.228848 0.000000 0.255813
v 0.206917 0.000000 0.255813
v -0.228848 0.112712 0.255813
v -0.228848 0.580036 -0.292475
v 0.206917 0.580036 -0.292475
v 0.206917 -0.000000 -0.292475
v -0.228848 -0.000000 -0.292475
v 0.206917 0.112712 0.255813
v -0.228848 -0.000000 -0.255813
v -0.228848 0.112712 -0.255813
v 0.206917 -0.000000 -0.255813
v 0.206917 0.112712 -0.255813
v -0.228848 0.606348 -0.292475
v -0.228848 0.606348 0.292476
v 0.206917 0.606348 0.292476
v 0.206917 0.606348 -0.292475
v -0.220027 0.597527 0.315410
v -0.220027 0.588858 0.315410
v 0.229851 0.588858 0.315410
v 0.229851 0.597527 0.315410
v 0.229851 0.588858 -0.315410
v 0.229851 0.597527 -0.315410
v -0.220027 0.588858 -0.315410
v -0.220027 0.597527 -0.315410
v 0.222954 0.000000 0.292475
v 0.222954 0.000000 0.189953
v 0.222954 0.115593 0.292475
v 0.222954 0.027281 0.161685
v 0.222954 -0.000000 -0.189953
v 0.222954 -0.000000 -0.292475
v 0.222954 0.115594 -0.292475
v 0.222954 0.027281 -0.161685
v 0.222954 0.045466 0.116656
v 0.222954 0.045466 -0.116656
v 0.222954 0.044275 -0.129024
v 0.222954 0.040748 -0.140937
v 0.222954 0.035013 -0.151959
v 0.222954 0.035013 0.151959
v 0.222954 0.040748 0.140937
v 0.222954 0.044275 0.129023
v 0.206917 0.000000 0.292475
v 0.206917 0.115593 0.292475
v 0.206917 0.000000 0.189953
v 0.206917 0.027281 0.161685
v 0.206917 -0.000000 -0.189953
v 0.206917 0.115594 -0.292475
v 0.206917 -0.000000 -0.292475
v 0.206917 0.027281 -0.161685
v 0.206917 0.045466 0.116656
v 0.206917 0.045466 -0.116656
v 0.206917 0.044275 -0.129024
v 0.206917 0.040748 -0.140937
v 0.206917 0.035013 -0.151959
v 0.206917 0.035013 0.151959
v 0.206917 0.040748 0.140937
v 0.206917 0.044275 0.129023
v 0.254719 0.435577 -0.015861
v 0.244062 0.432265 -0.041525
v 0.241157 0.457175 -0.033594
v 0.249850 0.457510 -0.012832
v 0.225449 0.429891 -0.051327
v 0.225449 0.456695 -0.041525
v 0.225449 0.429891 0.051327
v 0.244062 0.432265 0.041525
v 0.241157 0.457175 0.033594
v 0.225449 0.456695 0.041525
v 0.254719 0.435577 0.015861
v 0.249850 0.457510 0.012832
v 0.255309 0.433538 -0.000000
v 0.249715 0.457463 -0.000000
v 0.237669 0.465445 -0.024408
v 0.243929 0.465445 -0.009323
v 0.225449 0.465445 -0.030170
v 0.237669 0.465445 0.024408
v 0.225449 0.465445 0.030170
v 0.243929 0.465445 0.009323
v 0.243444 0.465445 -0.000000
v 0.225449 0.470540 -0.009252
v 0.225449 0.469749 -0.018574
v 0.225449 0.470540 0.009252
v 0.225449 0.469749 0.018574
v 0.225449 0.476169 0.002318
v 0.225449 0.477226 -0.000000
v 0.225449 0.476169 -0.002318
v 0.224839 0.467070 -0.009028
v 0.224829 0.467066 -0.002313
v 0.224839 0.467071 0.009026
v 0.224829 0.467066 0.002310
v 0.224820 0.467068 -0.000001
v 0.225449 0.425893 0.055325
v 0.225449 0.429891 0.049969
v 0.228419 0.447775 0.040070
v 0.225449 0.444809 0.066246
v 0.225449 0.440812 0.070243
v 0.225449 0.435351 0.071707
v 0.225449 0.429891 0.070243
v 0.225449 0.425893 0.066246
v 0.225449 0.424430 0.060785
v 0.225449 0.465721 0.027708
v 0.225449 0.425893 -0.055325
v 0.228419 0.447775 -0.040070
v 0.225449 0.429891 -0.049969
v 0.225449 0.444809 -0.066246
v 0.225449 0.440812 -0.070243
v 0.225449 0.435351 -0.071707
v 0.225449 0.429891 -0.070243
v 0.225449 0.425893 -0.066246
v 0.225449 0.424431 -0.060785
v 0.225449 0.465721 -0.027707
v 0.254719 0.229753 -0.015861
v 0.244062 0.226442 -0.041525
v 0.241157 0.251352 -0.033594
v 0.249850 0.251686 -0.012832
v 0.225449 0.224067 -0.051327
v 0.225449 0.250871 -0.041525
v 0.225449 0.224067 0.051327
v 0.244062 0.226442 0.041525
v 0.241157 0.251352 0.033594
v 0.225449 0.250871 0.041525
v 0.254719 0.229753 0.015861
v 0.249850 0.251686 0.012832
v 0.255309 0.227714 -0.000000
v 0.249715 0.251640 -0.000000
v 0.237669 0.259621 -0.024408
v 0.243929 0.259621 -0.009323
v 0.225449 0.259621 -0.030170
v 0.237669 0.259621 0.024408
v 0.225449 0.259621 0.030170
v 0.243929 0.259621 0.009323
v 0.243444 0.259621 -0.000000
v 0.225449 0.264716 -0.009252
v 0.225449 0.263925 -0.018574
v 0.225449 0.264716 0.009252
v 0.225449 0.263925 0.018574
v 0.225449 0.270346 0.002318
v 0.225449 0.271402 -0.000000
v 0.225449 0.270346 -0.002318
v 0.224839 0.261247 -0.009028
v 0.224829 0.261242 -0.002313
v 0.224839 0.261247 0.009026
v 0.224829 0.261242 0.002310
v 0.224820 0.261244 -0.000001
v 0.225449 0.220070 0.055325
v 0.225449 0.224067 0.049969
v 0.228419 0.241951 0.040070
v 0.225449 0.238986 0.066246
v 0.225449 0.234988 0.070243
v 0.225449 0.229528 0.071707
v 0.225449 0.224067 0.070243
v 0.225449 0.220070 0.066246
v 0.225449 0.218606 0.060785
v 0.225449 0.259897 0.027708
v 0.225449 0.220070 -0.055325
v 0.228419 0.241951 -0.040070
v 0.225449 0.224067 -0.049969
v 0.225449 0.238986 -0.066246
v 0.225449 0.234988 -0.070243
v 0.225449 0.229528 -0.071707
v 0.225449 0.224067 -0.070243
v 0.225449 0.220070 -0.066246
v 0.225449 0.218606 -0.060785
v 0.225449 0.259897 -0.027707
vn 0.0003 0.8944 0.4472
vn -0.0000 -0.4472 0.8944
vn 0.6667 -0.6667 0.3333
vn 0.4082 0.4083 0.8165
vn -0.0000 0.4472 -0.8944
vn 0.6667 0.6667 -0.3333
vn 0.0002 -0.8944 -0.4472
vn 0.4082 -0.4083 -0.8165
vn -0.0001 0.8944 0.4472
vn -0.0002 -0.4472 0.8944
vn -0.0001 -0.8944 -0.4472
vn 0.4083 -0.8165 0.4082
vn 0.7451 -0.4786 0.4646
vn -0.9297 -0.1759 0.3237
vn -0.6667 -0.3333 0.6667
vn -0.4082 -0.8165 -0.4083
vn 0.6667 -0.3333 -0.6667
vn -0.7276 -0.4851 -0.4851
vn -0.9297 -0.1759 -0.3237
vn 0.5072 -0.6967 -0.5073
vn 0.8165 -0.4082 -0.4082
vn -0.5774 -0.5774 -0.5774
vn 0.8165 -0.4083 -0.4082
vn -0.4083 -0.4083 0.8164
vn -0.9428 -0.2357 0.2357
vn 0.4082 -0.8165 0.4083
vn 0.8165 -0.4083 0.4082
vn -0.7915 0.5339 -0.2974
vn -0.7778 0.5900 0.2166
vn 0.0924 0.9784 0.1848
vn 0.1233 0.9847 -0.1233
vn -0.3170 0.6340 0.7054
vn -0.4308 -0.4308 0.7930
vn 0.6578 -0.6776 0.3289
vn 0.4248 0.6924 0.5833
vn 0.4117 -0.5655 -0.7147
vn 0.7146 0.5655 -0.4117
vn -0.5197 -0.5197 -0.6781
vn -0.2510 0.5022 -0.8275
vn 0.0133 -0.4472 0.8943
vn 0.0160 -0.9688 -0.2474
vn 0.6776 0.6578 0.3289
vn 0.0066 -0.7414 -0.6711
vn 0.0161 -0.8689 0.4948
vn 0.0133 -0.8943 -0.4472
vn 0.4284 0.4041 -0.8082
vn 0.0067 -0.7625 0.6470
vn 0.3173 -0.9464 -0.0606
vn 0.5556 -0.8310 0.0266
vn 0.0021 -0.9872 0.1592
vn 0.0026 -0.9388 0.3445
vn 0.0030 -0.8558 0.5172
vn 0.0030 -0.8209 -0.5710
vn 0.0026 -0.9147 -0.4040
vn 0.0021 -0.9750 -0.2221
vn -0.0133 -0.8943 0.4472
vn -0.6776 0.3289 0.6578
vn -0.0161 -0.8689 -0.4948
vn -0.0067 -0.7625 -0.6470
vn -0.0160 -0.9688 0.2474
vn -0.4284 0.8082 -0.4041
vn -0.0133 -0.4472 -0.8943
vn -0.0066 -0.7414 0.6710
vn -0.3173 -0.9478 -0.0303
vn -0.5556 -0.8297 0.0532
vn -0.0021 -0.9750 0.2222
vn -0.0026 -0.9148 0.4039
vn -0.0030 -0.8209 0.5711
vn -0.0030 -0.8558 -0.5172
vn -0.0026 -0.9387 -0.3446
vn -0.0021 -0.9872 -0.1592
vn 0.4563 -0.8800 -0.1322
vn 0.5834 -0.3973 -0.7084
vn 0.6122 0.5258 -0.5906
vn 0.8780 0.4438 -0.1792
vn 0.4148 0.3153 -0.8536
vn 0.3318 0.6348 -0.6978
vn 0.4150 0.3147 0.8537
vn 0.5028 0.0845 0.8603
vn 0.6262 0.5384 0.5639
vn 0.3803 0.4807 0.7901
vn 0.4482 -0.8787 0.1642
vn 0.8780 0.4483 0.1678
vn 0.4659 -0.8842 0.0335
vn 0.9061 0.4231 -0.0039
vn 0.4310 0.7470 -0.5062
vn 0.6618 0.7363 -0.1407
vn 0.2739 0.7630 -0.5855
vn 0.5790 0.7060 0.4079
vn 0.2740 0.7630 0.5855
vn 0.7181 0.6914 0.0789
vn 0.6687 0.7434 0.0135
vn 0.2625 0.9293 -0.2597
vn 0.2242 0.9470 -0.2301
vn 0.2625 0.9293 0.2597
vn 0.2242 0.9470 0.2301
vn 0.5164 0.8545 0.0562
vn 0.5172 0.8557 -0.0187
vn 0.5164 0.8545 -0.0563
vn -0.6617 -0.6916 0.2895
vn -0.6969 -0.6949 0.1774
vn -0.6621 -0.6914 -0.2890
vn -0.7221 -0.6889 -0.0623
vn -0.7380 -0.6745 -0.0173
vn 0.9733 -0.2048 -0.1037
vn 0.9425 -0.2674 -0.2006
vn 0.9959 0.0479 0.0770
vn 0.9633 0.2317 0.1355
vn 0.9914 0.0654 0.1132
vn 0.9956 -0.0000 0.0941
vn 0.9964 -0.0423 0.0730
vn 0.9957 -0.0804 0.0464
vn 0.9919 -0.1269 -0.0000
vn 0.9576 0.2531 0.1373
vn 0.9733 -0.2048 0.1037
vn 0.9959 0.0479 -0.0770
vn 0.9425 -0.2674 0.2006
vn 0.9633 0.2317 -0.1355
vn 0.9914 0.0654 -0.1132
vn 0.9956 -0.0000 -0.0940
vn 0.9964 -0.0423 -0.0730
vn 0.9957 -0.0804 -0.0464
vn 0.9576 0.2531 -0.1373
vn 0.6122 0.5257 -0.5906
vn 0.4148 0.3153 -0.8535
vn 0.3803 0.4808 0.7901
vn 0.2739 0.7629 0.5856
vn -0.6969 -0.6948 0.1774
vn -0.6622 -0.6914 -0.2890
vn 0.9959 0.0478 0.0770
vn 0.9959 0.0478 -0.0770
vn 0.9956 -0.0000 -0.0941
vt 0.000000 0.000000
s 1
usemtl material_0.004
f 1/1/1 2/1/2 3/1/3
f 3/1/3 4/1/4 1/1/1
f 5/1/5 1/1/1 4/1/4
f 4/1/4 6/1/6 5/1/5
f 7/1/7 5/1/5 6/1/6
f 6/1/6 8/1/8 7/1/7
f 2/1/2 7/1/7 8/1/8
f 8/1/8 3/1/3 2/1/2
f 4/1/4 3/1/3 8/1/8
f 8/1/8 6/1/6 4/1/4
f 9/1/9 10/1/10 11/1/3
f 11/1/3 12/1/4 9/1/9
f 13/1/5 9/1/9 12/1/4
f 12/1/4 14/1/6 13/1/5
f 15/1/11 13/1/5 14/1/6
f 14/1/6 16/1/8 15/1/11
f 10/1/10 15/1/11 16/1/8
f 16/1/8 11/1/3 10/1/10
f 12/1/4 11/1/3 16/1/8
f 16/1/8 14/1/6 12/1/4
f 17/1/12 18/1/13 19/1/14
f 19/1/14 20/1/15 17/1/12
f 20/1/15 21/1/16 22/1/17
f 22/1/17 17/1/12 20/1/15
f 21/1/16 20/1/15 19/1/14
f 19/1/14 23/1/18 21/1/16
f 24/1/19 25/1/20 26/1/21
f 26/1/21 27/1/22 24/1/19
f 28/1/23 18/1/13 17/1/12
f 17/1/12 22/1/17 28/1/23
f 29/1/24 30/1/25 24/1/19
f 24/1/19 27/1/22 29/1/24
f 29/1/24 27/1/22 26/1/21
f 26/1/21 31/1/26 29/1/24
f 25/1/20 32/1/27 31/1/26
f 31/1/26 26/1/21 25/1/20
f 33/1/28 34/1/29 35/1/30
f 35/1/30 36/1/31 33/1/28
f 24/1/19 30/1/25 23/1/18
f 23/1/18 19/1/14 24/1/19
f 25/1/20 18/1/13 28/1/23
f 28/1/23 32/1/27 25/1/20
f 37/1/32 38/1/33 39/1/34
f 39/1/34 40/1/35 37/1/32
f 40/1/35 39/1/34 41/1/36
f 41/1/36 42/1/37 40/1/35
f 42/1/37 41/1/36 43/1/38
f 43/1/38 44/1/39 42/1/37
f 33/1/28 24/1/19 19/1/14
f 19/1/14 34/1/29 33/1/28
f 40/1/35 35/1/30 34/1/29
f 34/1/29 37/1/32 40/1/35
f 37/1/32 34/1/29 19/1/14
f 19/1/14 38/1/33 37/1/32
f 42/1/37 36/1/31 35/1/30
f 35/1/30 40/1/35 42/1/37
f 41/1/36 25/1/20 24/1/19
f 24/1/19 43/1/38 41/1/36
f 19/1/14 18/1/13 39/1/34
f 39/1/34 38/1/33 19/1/14
f 18/1/13 25/1/20 41/1/36
f 41/1/36 39/1/34 18/1/13
f 24/1/19 33/1/28 44/1/39
f 44/1/39 43/1/38 24/1/19
f 33/1/28 36/1/31 42/1/37
f 42/1/37 44/1/39 33/1/28
f 31/1/26 32/1/27 30/1/25
f 30/1/25 29/1/24 31/1/26
f 21/1/16 23/1/18 28/1/23
f 28/1/23 22/1/17 21/1/16
f 28/1/23 23/1/18 30/1/25
f 30/1/25 32/1/27 28/1/23
f 45/1/40 46/1/41 47/1/42
f 46/1/41 48/1/43 47/1/42
f 49/1/44 50/1/45 51/1/46
f 51/1/46 52/1/47 49/1/44
f 51/1/46 47/1/42 53/1/48
f 53/1/48 54/1/49 51/1/46
f 51/1/46 54/1/49 55/1/50
f 51/1/46 55/1/50 56/1/51
f 51/1/46 56/1/51 57/1/52
f 51/1/46 57/1/52 52/1/47
f 47/1/42 48/1/43 58/1/53
f 47/1/42 58/1/53 59/1/54
f 47/1/42 59/1/54 60/1/55
f 47/1/42 60/1/55 53/1/48
f 61/1/56 62/1/57 63/1/58
f 63/1/58 62/1/57 64/1/59
f 65/1/60 66/1/61 67/1/62
f 66/1/61 65/1/60 68/1/63
f 69/1/64 62/1/57 66/1/61
f 66/1/61 70/1/65 69/1/64
f 66/1/61 71/1/66 70/1/65
f 66/1/61 72/1/67 71/1/66
f 66/1/61 73/1/68 72/1/67
f 66/1/61 68/1/63 73/1/68
f 62/1/57 74/1/69 64/1/59
f 62/1/57 75/1/70 74/1/69
f 62/1/57 76/1/71 75/1/70
f 62/1/57 69/1/64 76/1/71
f 45/1/40 61/1/56 63/1/58
f 63/1/58 46/1/41 45/1/40
f 47/1/42 62/1/57 61/1/56
f 61/1/56 45/1/40 47/1/42
f 46/1/41 63/1/58 64/1/59
f 64/1/59 48/1/43 46/1/41
f 49/1/44 65/1/60 67/1/62
f 67/1/62 50/1/45 49/1/44
f 50/1/45 67/1/62 66/1/61
f 66/1/61 51/1/46 50/1/45
f 52/1/47 68/1/63 65/1/60
f 65/1/60 49/1/44 52/1/47
f 53/1/48 69/1/64 70/1/65
f 70/1/65 54/1/49 53/1/48
f 51/1/46 66/1/61 62/1/57
f 62/1/57 47/1/42 51/1/46
f 54/1/49 70/1/65 71/1/66
f 71/1/66 55/1/50 54/1/49
f 55/1/50 71/1/66 72/1/67
f 72/1/67 56/1/51 55/1/50
f 56/1/51 72/1/67 73/1/68
f 73/1/68 57/1/52 56/1/51
f 57/1/52 73/1/68 68/1/63
f 68/1/63 52/1/47 57/1/52
f 48/1/43 64/1/59 74/1/69
f 74/1/69 58/1/53 48/1/43
f 58/1/53 74/1/69 75/1/70
f 75/1/70 59/1/54 58/1/53
f 59/1/54 75/1/70 76/1/71
f 76/1/71 60/1/55 59/1/54
f 60/1/55 76/1/71 69/1/64
f 69/1/64 53/1/48 60/1/55
f 77/1/72 78/1/73 79/1/74
f 79/1/74 80/1/75 77/1/72
f 78/1/73 81/1/76 82/1/77
f 82/1/77 79/1/74 78/1/73
f 83/1/78 84/1/79 85/1/80
f 85/1/80 86/1/81 83/1/78
f 84/1/79 87/1/82 88/1/83
f 88/1/83 85/1/80 84/1/79
f 87/1/82 89/1/84 90/1/85
f 90/1/85 88/1/83 87/1/82
f 89/1/84 77/1/72 80/1/75
f 80/1/75 90/1/85 89/1/84
f 91/1/86 92/1/87 80/1/75
f 80/1/75 79/1/74 91/1/86
f 93/1/88 91/1/86 79/1/74
f 79/1/74 82/1/77 93/1/88
f 94/1/89 95/1/90 86/1/81
f 86/1/81 85/1/80 94/1/89
f 96/1/91 94/1/89 85/1/80
f 85/1/80 88/1/83 96/1/91
f 88/1/83 90/1/85 97/1/92
f 97/1/92 96/1/91 88/1/83
f 90/1/85 80/1/75 92/1/87
f 92/1/87 97/1/92 90/1/85
f 91/1/86 98/1/93 92/1/87
f 93/1/88 99/1/94 91/1/86
f 94/1/89 100/1/95 101/1/96
f 96/1/91 102/1/97 100/1/95
f 96/1/91 97/1/92 103/1/98
f 103/1/98 102/1/97 96/1/91
f 97/1/92 92/1/87 104/1/99
f 104/1/99 103/1/98 97/1/92
f 105/1/100 78/1/73 77/1/72
f 77/1/72 106/1/101 105/1/100
f 105/1/100 81/1/76 78/1/73
f 84/1/79 83/1/78 107/1/102
f 108/1/103 87/1/82 84/1/79
f 84/1/79 107/1/102 108/1/103
f 109/1/104 89/1/84 87/1/82
f 87/1/82 108/1/103 109/1/104
f 106/1/101 77/1/72 89/1/84
f 89/1/84 109/1/104 106/1/101
f 96/1/91 100/1/95 94/1/89
f 92/1/87 98/1/93 104/1/99
f 94/1/89 101/1/96 95/1/90
f 91/1/86 99/1/94 98/1/93
f 110/1/105 111/1/106 112/1/107
f 113/1/108 114/1/109 112/1/107
f 114/1/109 115/1/110 112/1/107
f 115/1/110 116/1/111 112/1/107
f 116/1/111 117/1/112 112/1/107
f 117/1/112 118/1/113 112/1/107
f 118/1/113 110/1/105 112/1/107
f 113/1/108 112/1/107 119/1/114
f 120/1/115 121/1/116 122/1/117
f 123/1/118 121/1/116 124/1/119
f 124/1/119 121/1/116 125/1/120
f 125/1/120 121/1/116 126/1/121
f 126/1/121 121/1/116 127/1/122
f 127/1/122 121/1/116 128/1/113
f 128/1/113 121/1/116 120/1/115
f 123/1/118 129/1/123 121/1/116
f 130/1/72 131/1/73 132/1/124
f 132/1/124 133/1/75 130/1/72
f 131/1/73 134/1/125 135/1/77
f 135/1/77 132/1/124 131/1/73
f 136/1/78 137/1/79 138/1/80
f 138/1/80 139/1/126 136/1/78
f 137/1/79 140/1/82 141/1/83
f 141/1/83 138/1/80 137/1/79
f 140/1/82 142/1/84 143/1/85
f 143/1/85 141/1/83 140/1/82
f 142/1/84 130/1/72 133/1/75
f 133/1/75 143/1/85 142/1/84
f 144/1/86 145/1/87 133/1/75
f 133/1/75 132/1/124 144/1/86
f 146/1/88 144/1/86 132/1/124
f 132/1/124 135/1/77 146/1/88
f 147/1/89 148/1/127 139/1/126
f 139/1/126 138/1/80 147/1/89
f 149/1/91 147/1/89 138/1/80
f 138/1/80 141/1/83 149/1/91
f 141/1/83 143/1/85 150/1/92
f 150/1/92 149/1/91 141/1/83
f 143/1/85 133/1/75 145/1/87
f 145/1/87 150/1/92 143/1/85
f 144/1/86 151/1/93 145/1/87
f 146/1/88 152/1/94 144/1/86
f 147/1/89 153/1/95 154/1/96
f 149/1/91 155/1/97 153/1/95
f 149/1/91 150/1/92 156/1/98
f 156/1/98 155/1/97 149/1/91
f 150/1/92 145/1/87 157/1/99
f 157/1/99 156/1/98 150/1/92
f 158/1/100 131/1/73 130/1/72
f 130/1/72 159/1/128 158/1/100
f 158/1/100 134/1/125 131/1/73
f 137/1/79 136/1/78 160/1/129
f 161/1/103 140/1/82 137/1/79
f 137/1/79 160/1/129 161/1/103
f 162/1/104 142/1/84 140/1/82
f 140/1/82 161/1/103 162/1/104
f 159/1/128 130/1/72 142/1/84
f 142/1/84 162/1/104 159/1/128
f 149/1/91 153/1/95 147/1/89
f 145/1/87 151/1/93 157/1/99
f 147/1/89 154/1/96 148/1/127
f 144/1/86 152/1/94 151/1/93
f 163/1/105 164/1/106 165/1/130
f 166/1/108 167/1/109 165/1/130
f 167/1/109 168/1/110 165/1/130
f 168/1/110 169/1/111 165/1/130
f 169/1/111 170/1/112 165/1/130
f 170/1/112 171/1/113 165/1/130
f 171/1/113 163/1/105 165/1/130
f 166/1/108 165/1/130 172/1/114
f 173/1/115 174/1/131 175/1/117
f 176/1/118 174/1/131 177/1/119
f 177/1/119 174/1/131 178/1/132
f 178/1/132 174/1/131 179/1/121
f 179/1/121 174/1/131 180/1/122
f 180/1/122 174/1/131 181/1/113
f 181/1/113 174/1/131 173/1/115
f 176/1/118 182/1/123 174/1/131
