# https://github.com/mikedh/trimesh
v 0.18770003 0.11459751 0.58752842
v 0.20623227 0.11459751 0.58752842
v 0.18770003 0.32465312 0.58752842
v 0.20623227 0.32465312 0.58752842
v 0.18770003 0.32465312 0.04329194
v 0.20623227 0.32465312 0.04329194
v 0.18770003 0.11459751 0.04329194
v 0.20623227 0.11459751 0.04329194
v 0.18770003 -0.10623189 0.58752842
v 0.20623227 -0.10623189 0.58752842
v 0.18770003 0.10382372 0.58752842
v 0.20623227 0.10382372 0.58752842
v 0.18770003 0.10382372 0.04329194
v 0.20623227 0.10382372 0.04329194
v 0.18770003 -0.10623189 0.04329194
v 0.20623227 -0.10623189 0.04329194
v -0.24806437 0.34761687 0.60788563
v 0.18770003 0.34761687 0.60788563
v -0.24806437 0.34761687 0.02293473
v 0.18770003 0.34761687 0.02293473
v -0.24806437 -0.23241930 0.02293473
v 0.18770003 -0.23241930 0.02293473
v 0.18770003 -0.23241930 0.60788563
v -0.24806437 -0.23241930 0.60788563
v -0.24806437 -0.11970747 0.05959675
v -0.24806437 -0.23241930 0.05959675
v 0.18770003 -0.23241930 0.05959675
v 0.18770003 -0.11970747 0.05959675
v -0.24806437 -0.11970747 0.57122361
v -0.24806437 -0.23241930 0.57122361
v 0.18770003 -0.23241930 0.57122361
v 0.18770003 -0.11970747 0.57122361
v -0.24806437 0.37392839 0.60788563
v 0.18770003 0.37392839 0.60788563
v 0.18770003 0.37392839 0.02293473
v -0.24806437 0.37392839 0.02293473
v -0.23924361 0.35643826 0.63082036
v 0.21063476 0.35643826 0.63082036
v 0.21063476 0.36510763 0.63082036
v -0.23924361 0.36510763 0.63082036
v 0.21063476 0.35643826 0.00000000
v 0.21063476 0.36510763 0.00000000
v -0.23924361 0.35643826 0.00000000
v -0.23924361 0.36510763 0.00000000
v 0.18770003 -0.23241930 0.60788563
v 0.18770003 -0.11682588 0.60788563
v 0.18770003 -0.11682588 0.02293473
v 0.18770003 -0.23241930 0.02293473
v 0.18770003 -0.23241930 0.50536344
v 0.18770003 -0.23241930 0.12545692
v 0.18770003 -0.18814391 0.18638660
v 0.18770003 -0.19167146 0.17447356
v 0.18770003 -0.19740625 0.16345123
v 0.18770003 -0.20513821 0.15372524
v 0.18770003 -0.18695355 0.19875446
v 0.18770003 -0.19740625 0.46736913
v 0.18770003 -0.19167146 0.45634680
v 0.18770003 -0.18814391 0.44443313
v 0.18770003 -0.18695355 0.43206590
v 0.18770003 -0.20513821 0.47709512
v 0.20373737 -0.23241930 0.50536344
v 0.20373737 -0.23241930 0.60788563
v 0.20373737 -0.11682588 0.60788563
v 0.20373737 -0.20513821 0.47709512
v 0.20373737 -0.23241930 0.02293473
v 0.20373737 -0.23241930 0.12545692
v 0.20373737 -0.11682588 0.02293473
v 0.20373737 -0.20513821 0.15372524
v 0.20373737 -0.18695355 0.43206590
v 0.20373737 -0.18695355 0.19875446
v 0.20373737 -0.18814391 0.18638660
v 0.20373737 -0.19167146 0.17447356
v 0.20373737 -0.19740625 0.16345123
v 0.20373737 -0.19740625 0.46736913
v 0.20373737 -0.19167146 0.45634680
v 0.20373737 -0.18814391 0.44443313
v 0.23550233 0.20315775 0.29954883
v 0.22484588 0.19984594 0.27388517
v 0.20623227 0.19747153 0.26408285
v 0.20623227 0.19747153 0.36673751
v 0.22484588 0.19984594 0.35693519
v 0.23550233 0.20315775 0.33127153
v 0.23609278 0.20111830 0.31541018
v 0.23063366 0.22509074 0.30257803
v 0.22194032 0.22475577 0.28181584
v 0.20623227 0.22427572 0.27388517
v 0.20623227 0.22427572 0.35693519
v 0.22194032 0.22475577 0.34900452
v 0.23063366 0.22509074 0.32824233
v 0.23049866 0.22504406 0.31541018
v 0.22471278 0.23302520 0.30608729
v 0.21845252 0.23302520 0.29100248
v 0.20623227 0.23302520 0.28524057
v 0.20623227 0.23302520 0.34557979
v 0.21845252 0.23302520 0.33981788
v 0.22471278 0.23302520 0.32473307
v 0.22422768 0.23302520 0.31541018
v 0.20623227 0.24374977 0.31309255
v 0.20623227 0.23812033 0.30615794
v 0.20623227 0.23732928 0.29683631
v 0.20623227 0.23732928 0.33398405
v 0.20623227 0.23812033 0.32466242
v 0.20623227 0.24374977 0.31772781
v 0.20623227 0.24480640 0.31541018
v 0.20561217 0.23464641 0.31309759
v 0.20562289 0.23465082 0.30638251
v 0.20562289 0.23465145 0.32443659
v 0.20561280 0.23464641 0.31772024
v 0.20560334 0.23464830 0.31540955
v 0.20623227 0.19347402 0.37073502
v 0.20623227 0.19747153 0.36537935
v 0.20920280 0.21535529 0.35547989
v 0.20623227 0.21238980 0.38165641
v 0.20623227 0.20839292 0.38565329
v 0.20623227 0.20293191 0.38711679
v 0.20623227 0.19747153 0.38565329
v 0.20623227 0.19347402 0.38165641
v 0.20623227 0.19201115 0.37619540
v 0.20623227 0.23330150 0.34311770
v 0.20623227 0.19347402 0.26008534
v 0.20623227 0.19747153 0.26544101
v 0.20920280 0.21535529 0.27534047
v 0.20623227 0.21238980 0.24916395
v 0.20623227 0.20839292 0.24516707
v 0.20623227 0.20293191 0.24370357
v 0.20623227 0.19747153 0.24516707
v 0.20623227 0.19347402 0.24916395
v 0.20623227 0.19201115 0.25462496
v 0.20623227 0.23330150 0.28770266
v 0.23550233 -0.00266632 0.29954883
v 0.22484588 -0.00597750 0.27388517
v 0.20623227 -0.00835254 0.26408285
v 0.20623227 -0.00835254 0.36673751
v 0.22484588 -0.00597750 0.35693519
v 0.23550233 -0.00266632 0.33127153
v 0.23609278 -0.00470576 0.31541018
v 0.23063366 0.01926667 0.30257803
v 0.22194032 0.01893234 0.28181584
v 0.20623227 0.01845165 0.27388517
v 0.20623227 0.01845165 0.35693519
v 0.22194032 0.01893234 0.34900452
v 0.23063366 0.01926667 0.32824233
v 0.23049866 0.01922062 0.31541018
v 0.22471278 0.02720176 0.30608729
v 0.21845252 0.02720176 0.29100248
v 0.20623227 0.02720176 0.28524057
v 0.20623227 0.02720176 0.34557979
v 0.21845252 0.02720176 0.33981788
v 0.22471278 0.02720176 0.32473307
v 0.22422768 0.02720176 0.31541018
v 0.20623227 0.03792634 0.31309255
v 0.20623227 0.03229627 0.30615794
v 0.20623227 0.03150522 0.29683631
v 0.20623227 0.03150522 0.33398405
v 0.20623227 0.03229627 0.32466242
v 0.20623227 0.03792634 0.31772781
v 0.20623227 0.03898296 0.31541018
v 0.20561217 0.02882297 0.31309759
v 0.20562289 0.02882738 0.30638251
v 0.20562289 0.02882738 0.32443659
v 0.20561280 0.02882234 0.31772024
v 0.20560334 0.02882423 0.31540955
v 0.20623227 -0.01234942 0.37073502
v 0.20623227 -0.00835254 0.36537935
v 0.20920280 0.00953122 0.35547989
v 0.20623227 0.00656636 0.38165641
v 0.20623227 0.00256886 0.38565329
v 0.20623227 -0.00289153 0.38711679
v 0.20623227 -0.00835254 0.38565329
v 0.20623227 -0.01234942 0.38165641
v 0.20623227 -0.01381292 0.37619540
v 0.20623227 0.02747743 0.34311770
v 0.20623227 -0.01234942 0.26008534
v 0.20623227 -0.00835254 0.26544101
v 0.20920280 0.00953122 0.27534047
v 0.20623227 0.00656636 0.24916395
v 0.20623227 0.00256886 0.24516707
v 0.20623227 -0.00289153 0.24370357
v 0.20623227 -0.00835254 0.24516707
v 0.20623227 -0.01234942 0.24916395
v 0.20623227 -0.01381292 0.25462496
v 0.20623227 0.02747743 0.28770266
vn 0.00000000 -0.44721360 0.89442719
vn 0.66666667 -0.66666667 0.33333333
vn 0.00000000 0.89442719 0.44721360
vn 0.40824829 0.40824829 0.81649658
vn 0.00000000 0.44721360 -0.89442719
vn 0.66666667 0.66666667 -0.33333333
vn 0.00000000 -0.89442719 -0.44721360
vn 0.40824829 -0.40824829 -0.81649658
vn 0.00000000 -0.44721360 0.89442719
vn 0.66666667 -0.66666667 0.33333333
vn 0.00000000 0.89442719 0.44721360
vn 0.40824829 0.40824829 0.81649658
vn 0.00000000 0.44721360 -0.89442719
vn 0.66666667 0.66666667 -0.33333333
vn 0.00000000 -0.89442719 -0.44721360
vn 0.40824829 -0.40824829 -0.81649658
vn -0.92965562 -0.17588164 0.32373766
vn 0.74506291 -0.47859545 0.46457255
vn -0.92965562 -0.17588164 -0.32373766
vn 0.50723400 -0.69672616 -0.50723400
vn -0.57735027 -0.57735027 -0.57735027
vn 0.81649658 -0.40824829 -0.40824829
vn 0.40824829 -0.81649658 0.40824829
vn -0.66666667 -0.33333333 0.66666667
vn -0.94280904 -0.23570226 0.23570226
vn -0.40824829 -0.40824829 0.81649658
vn 0.40824829 -0.81649658 0.40824829
vn 0.81649658 -0.40824829 0.40824829
vn -0.72760688 -0.48507125 -0.48507125
vn -0.40824829 -0.81649658 -0.40824829
vn 0.66666667 -0.33333333 -0.66666667
vn 0.81649658 -0.40824829 -0.40824829
vn -0.77777598 0.59003537 0.21661671
vn 0.09242492 0.97841104 0.18484984
vn 0.12330187 0.98467929 -0.12330187
vn -0.79156966 0.53384789 -0.29736157
vn -0.43081300 -0.43080907 0.79297144
vn 0.65776946 -0.67762392 0.32888473
vn 0.42478041 0.69234550 0.58328321
vn -0.31699606 0.63399179 0.70538493
vn 0.41169834 -0.56550034 -0.71464246
vn 0.71463908 0.56550809 -0.41169356
vn -0.51967613 -0.51967139 -0.67814332
vn -0.25103974 0.50207920 -0.82758415
vn -0.01331729 -0.89434787 0.44717394
vn -0.67760577 0.32889221 0.65778442
vn -0.42844173 0.80817705 -0.40408853
vn -0.01331729 -0.44717394 -0.89434787
vn -0.01603779 -0.86888574 -0.49475283
vn -0.01603780 -0.96878675 0.24737626
vn -0.00210527 -0.97501621 0.22212374
vn -0.00262438 -0.91475830 0.40399303
vn -0.00299791 -0.82091146 0.57104762
vn -0.00665332 -0.74137581 0.67105711
vn -0.55561239 -0.82974040 0.05315769
vn -0.00299791 -0.85583077 -0.51724724
vn -0.00262438 -0.93877148 -0.34453044
vn -0.00210527 -0.98725078 -0.15915863
vn -0.31728919 -0.94784411 -0.03031684
vn -0.00665332 -0.76247104 -0.64698814
vn 0.01603780 -0.96878675 -0.24737626
vn 0.01331729 -0.44717394 0.89434787
vn 0.67760577 0.65778442 0.32889221
vn 0.00665332 -0.74137581 -0.67105711
vn 0.01331729 -0.89434787 -0.44717394
vn 0.01603779 -0.86888574 0.49475283
vn 0.42844173 0.40408853 -0.80817705
vn 0.00665332 -0.76247104 0.64698814
vn 0.31728917 -0.94638847 -0.06063367
vn 0.55561248 -0.83101645 0.02657871
vn 0.00210527 -0.98725054 0.15916010
vn 0.00262438 -0.93876809 0.34453967
vn 0.00299791 -0.85583077 0.51724724
vn 0.00299791 -0.82091146 -0.57104762
vn 0.00262438 -0.91476025 -0.40398861
vn 0.00210527 -0.97501801 -0.22211584
vn 0.45623446 -0.87998720 -0.13218413
vn 0.58343212 -0.39727680 -0.70836297
vn 0.41480705 0.31530606 -0.85353219
vn 0.41497143 0.31468459 0.85368163
vn 0.50278928 0.08449959 0.86026900
vn 0.44817611 -0.87873844 0.16418563
vn 0.46588408 -0.88421115 0.03350618
vn 0.87800635 0.44382676 -0.17922795
vn 0.61217099 0.52575345 -0.59061831
vn 0.33178202 0.63481901 -0.69780048
vn 0.38026767 0.48074825 0.79011241
vn 0.62616538 0.53843416 0.56391983
vn 0.87797301 0.44833370 0.16781027
vn 0.90606776 0.42311465 -0.00389899
vn 0.66182703 0.73633202 -0.14071298
vn 0.43096092 0.74701070 -0.50620915
vn 0.27393470 0.76300364 -0.58547863
vn 0.27395381 0.76296523 0.58551974
vn 0.57898480 0.70599195 0.40786268
vn 0.71812624 0.69142759 0.07888339
vn 0.66872128 0.74339029 0.01351741
vn 0.51636900 0.85451470 -0.05628214
vn 0.26248688 0.92934544 -0.25964918
vn 0.22420830 0.94698506 -0.23010852
vn 0.22420830 0.94698506 0.23010852
vn 0.26248688 0.92934544 0.25964918
vn 0.51641155 0.85449695 0.05616110
vn 0.51717672 0.85567419 -0.01870613
vn -0.69692669 -0.69485345 0.17740312
vn -0.66170498 -0.69160857 0.28952393
vn -0.66214562 -0.69141465 -0.28897916
vn -0.72213428 -0.68893745 -0.06234789
vn -0.73803779 -0.67453688 -0.01732680
vn 0.97330589 -0.20477345 -0.10365076
vn 0.94249568 -0.26737466 -0.20053100
vn 0.99588290 0.04786235 0.07698342
vn 0.96329590 0.23171565 0.13553180
vn 0.99142423 0.06535111 0.11316900
vn 0.99556735 0.00000000 0.09405129
vn 0.99639535 -0.04242182 0.07346217
vn 0.99567816 -0.08042452 0.04644233
vn 0.99191666 -0.12689105 0.00000000
vn 0.95755061 0.25346928 0.13729586
vn 0.97330589 -0.20477345 0.10365076
vn 0.94249568 -0.26737466 0.20053100
vn 0.99588290 0.04786235 -0.07698342
vn 0.96329590 0.23171565 -0.13553180
vn 0.99142423 0.06535111 -0.11316900
vn 0.99556735 0.00000000 -0.09405129
vn 0.99639535 -0.04242182 -0.07346217
vn 0.99567816 -0.08042452 -0.04644233
vn 0.99191666 -0.12689105 0.00000000
vn 0.95755061 0.25346928 -0.13729586
vn 0.45622753 -0.87998479 -0.13222409
vn 0.58341886 -0.39727181 -0.70837669
vn 0.41479762 0.31530713 -0.85353638
vn 0.41496241 0.31468559 0.85368564
vn 0.50277907 0.08449948 0.86027498
vn 0.44817187 -0.87873846 0.16419710
vn 0.46588296 -0.88421216 0.03349510
vn 0.87801063 0.44381689 -0.17923143
vn 0.61217394 0.52574634 -0.59062158
vn 0.33177202 0.63481147 -0.69781210
vn 0.38025733 0.48074462 0.79011959
vn 0.62616579 0.53842823 0.56392504
vn 0.87797834 0.44832259 0.16781206
vn 0.90607176 0.42310612 -0.00389693
vn 0.66183681 0.73632285 -0.14071495
vn 0.43096277 0.74700117 -0.50622164
vn 0.27392574 0.76299375 -0.58549571
vn 0.27394485 0.76295534 0.58553682
vn 0.57899672 0.70597932 0.40786763
vn 0.71813596 0.69141663 0.07889105
vn 0.66872733 0.74338490 0.01351454
vn 0.51636900 0.85451470 -0.05628214
vn 0.26248688 0.92934544 -0.25964918
vn 0.22420830 0.94698506 -0.23010852
vn 0.22420830 0.94698506 0.23010852
vn 0.26248688 0.92934544 0.25964918
vn 0.51641155 0.85449695 0.05616110
vn 0.51717672 0.85567419 -0.01870613
vn -0.69693595 -0.69484784 0.17738871
vn -0.66171580 -0.69160242 0.28951388
vn -0.66214970 -0.69141574 -0.28896721
vn -0.72213495 -0.68893713 -0.06234377
vn -0.73804145 -0.67453250 -0.01734150
vn 0.97330589 -0.20477345 -0.10365076
vn 0.94249568 -0.26737466 -0.20053100
vn 0.99588527 0.04784861 0.07696132
vn 0.96329590 0.23171565 0.13553180
vn 0.99142423 0.06535111 0.11316900
vn 0.99556735 0.00000000 0.09405129
vn 0.99639535 -0.04242182 0.07346217
vn 0.99567816 -0.08042452 0.04644233
vn 0.99191666 -0.12689105 0.00000000
vn 0.95755061 0.25346928 0.13729586
vn 0.97330589 -0.20477345 0.10365076
vn 0.94249568 -0.26737466 0.20053100
vn 0.99588527 0.04784861 -0.07696132
vn 0.96329590 0.23171565 -0.13553180
vn 0.99142423 0.06535111 -0.11316900
vn 0.99556735 0.00000000 -0.09405129
vn 0.99639535 -0.04242182 -0.07346217
vn 0.99567816 -0.08042452 -0.04644233
vn 0.99191666 -0.12689105 0.00000000
vn 0.95755061 0.25346928 -0.13729586
f 3//3 1//1 2//2
f 2//2 4//4 3//3
f 5//5 3//3 4//4
f 4//4 6//6 5//5
f 7//7 5//5 6//6
f 6//6 8//8 7//7
f 1//1 7//7 8//8
f 8//8 2//2 1//1
f 4//4 2//2 8//8
f 8//8 6//6 4//4
f 11//11 9//9 10//10
f 10//10 12//12 11//11
f 13//13 11//11 12//12
f 12//12 14//14 13//13
f 15//15 13//13 14//14
f 14//14 16//16 15//15
f 9//9 15//15 16//16
f 16//16 10//10 9//9
f 12//12 10//10 16//16
f 16//16 14//14 12//12
f 23//23 18//18 17//17
f 17//17 24//24 23//23
f 24//24 30//30 31//31
f 31//31 23//23 24//24
f 30//30 24//24 17//17
f 17//17 29//29 30//30
f 19//19 20//20 22//22
f 22//22 21//21 19//19
f 32//32 18//18 23//23
f 23//23 31//31 32//32
f 26//26 25//25 19//19
f 19//19 21//21 26//26
f 26//26 21//21 22//22
f 22//22 27//27 26//26
f 20//20 28//28 27//27
f 27//27 22//22 20//20
f 36//36 33//33 34//34
f 34//34 35//35 36//36
f 19//19 25//25 29//29
f 29//29 17//17 19//19
f 20//20 18//18 32//32
f 32//32 28//28 20//20
f 40//40 37//37 38//38
f 38//38 39//39 40//40
f 39//39 38//38 41//41
f 41//41 42//42 39//39
f 42//42 41//41 43//43
f 43//43 44//44 42//42
f 36//36 19//19 17//17
f 17//17 33//33 36//36
f 39//39 34//34 33//33
f 33//33 40//40 39//39
f 40//40 33//33 17//17
f 17//17 37//37 40//40
f 42//42 35//35 34//34
f 34//34 39//39 42//42
f 41//41 20//20 19//19
f 19//19 43//43 41//41
f 17//17 18//18 38//38
f 38//38 37//37 17//17
f 18//18 20//20 41//41
f 41//41 38//38 18//18
f 19//19 36//36 44//44
f 44//44 43//43 19//19
f 36//36 35//35 42//42
f 42//42 44//44 36//36
f 27//27 28//28 25//25
f 25//25 26//26 27//27
f 30//30 29//29 32//32
f 32//32 31//31 30//30
f 32//32 29//29 25//25
f 25//25 28//28 32//32
f 62//62 61//61 63//63
f 61//61 64//64 63//63
f 66//66 65//65 67//67
f 67//67 68//68 66//66
f 67//67 63//63 69//69
f 69//69 70//70 67//67
f 67//67 70//70 71//71
f 67//67 71//71 72//72
f 67//67 72//72 73//73
f 67//67 73//73 68//68
f 63//63 64//64 74//74
f 63//63 74//74 75//75
f 63//63 75//75 76//76
f 63//63 76//76 69//69
f 45//45 46//46 49//49
f 49//49 46//46 60//60
f 50//50 47//47 48//48
f 47//47 50//50 54//54
f 59//59 46//46 47//47
f 47//47 55//55 59//59
f 47//47 51//51 55//55
f 47//47 52//52 51//51
f 47//47 53//53 52//52
f 47//47 54//54 53//53
f 46//46 56//56 60//60
f 46//46 57//57 56//56
f 46//46 58//58 57//57
f 46//46 59//59 58//58
f 62//62 45//45 49//49
f 49//49 61//61 62//62
f 63//63 46//46 45//45
f 45//45 62//62 63//63
f 61//61 49//49 60//60
f 60//60 64//64 61//61
f 66//66 50//50 48//48
f 48//48 65//65 66//66
f 65//65 48//48 47//47
f 47//47 67//67 65//65
f 68//68 54//54 50//50
f 50//50 66//66 68//68
f 69//69 59//59 55//55
f 55//55 70//70 69//69
f 67//67 47//47 46//46
f 46//46 63//63 67//67
f 70//70 55//55 51//51
f 51//51 71//71 70//70
f 71//71 51//51 52//52
f 52//52 72//72 71//71
f 72//72 52//52 53//53
f 53//53 73//73 72//72
f 73//73 53//53 54//54
f 54//54 68//68 73//73
f 64//64 60//60 56//56
f 56//56 74//74 64//64
f 74//74 56//56 57//57
f 57//57 75//75 74//74
f 75//75 57//57 58//58
f 58//58 76//76 75//75
f 76//76 58//58 59//59
f 59//59 69//69 76//76
f 77//77 78//78 85//85
f 85//85 84//84 77//77
f 78//78 79//79 86//86
f 86//86 85//85 78//78
f 80//80 81//81 88//88
f 88//88 87//87 80//80
f 81//81 82//82 89//89
f 89//89 88//88 81//81
f 82//82 83//83 90//90
f 90//90 89//89 82//82
f 83//83 77//77 84//84
f 84//84 90//90 83//83
f 92//92 91//91 84//84
f 84//84 85//85 92//92
f 93//93 92//92 85//85
f 85//85 86//86 93//93
f 95//95 94//94 87//87
f 87//87 88//88 95//95
f 96//96 95//95 88//88
f 88//88 89//89 96//96
f 89//89 90//90 97//97
f 97//97 96//96 89//89
f 90//90 84//84 91//91
f 91//91 97//97 90//90
f 92//92 99//99 91//91
f 93//93 100//100 92//92
f 95//95 102//102 101//101
f 96//96 103//103 102//102
f 96//96 97//97 104//104
f 104//104 103//103 96//96
f 97//97 91//91 98//98
f 98//98 104//104 97//97
f 106//106 78//78 77//77
f 77//77 105//105 106//106
f 106//106 79//79 78//78
f 81//81 80//80 107//107
f 108//108 82//82 81//81
f 81//81 107//107 108//108
f 109//109 83//83 82//82
f 82//82 108//108 109//109
f 105//105 77//77 83//83
f 83//83 109//109 105//105
f 96//96 102//102 95//95
f 91//91 99//99 98//98
f 95//95 101//101 94//94
f 92//92 100//100 99//99
f 110//110 111//111 112//112
f 113//113 114//114 112//112
f 114//114 115//115 112//112
f 115//115 116//116 112//112
f 116//116 117//117 112//112
f 117//117 118//118 112//112
f 118//118 110//110 112//112
f 113//113 112//112 119//119
f 120//120 122//122 121//121
f 123//123 122//122 124//124
f 124//124 122//122 125//125
f 125//125 122//122 126//126
f 126//126 122//122 127//127
f 127//127 122//122 128//128
f 128//128 122//122 120//120
f 123//123 129//129 122//122
f 130//130 131//131 138//138
f 138//138 137//137 130//130
f 131//131 132//132 139//139
f 139//139 138//138 131//131
f 133//133 134//134 141//141
f 141//141 140//140 133//133
f 134//134 135//135 142//142
f 142//142 141//141 134//134
f 135//135 136//136 143//143
f 143//143 142//142 135//135
f 136//136 130//130 137//137
f 137//137 143//143 136//136
f 145//145 144//144 137//137
f 137//137 138//138 145//145
f 146//146 145//145 138//138
f 138//138 139//139 146//146
f 148//148 147//147 140//140
f 140//140 141//141 148//148
f 149//149 148//148 141//141
f 141//141 142//142 149//149
f 142//142 143//143 150//150
f 150//150 149//149 142//142
f 143//143 137//137 144//144
f 144//144 150//150 143//143
f 145//145 152//152 144//144
f 146//146 153//153 145//145
f 148//148 155//155 154//154
f 149//149 156//156 155//155
f 149//149 150//150 157//157
f 157//157 156//156 149//149
f 150//150 144//144 151//151
f 151//151 157//157 150//150
f 159//159 131//131 130//130
f 130//130 158//158 159//159
f 159//159 132//132 131//131
f 134//134 133//133 160//160
f 161//161 135//135 134//134
f 134//134 160//160 161//161
f 162//162 136//136 135//135
f 135//135 161//161 162//162
f 158//158 130//130 136//136
f 136//136 162//162 158//158
f 149//149 155//155 148//148
f 144//144 152//152 151//151
f 148//148 154//154 147//147
f 145//145 153//153 152//152
f 163//163 164//164 165//165
f 166//166 167//167 165//165
f 167//167 168//168 165//165
f 168//168 169//169 165//165
f 169//169 170//170 165//165
f 170//170 171//171 165//165
f 171//171 163//163 165//165
f 166//166 165//165 172//172
f 173//173 175//175 174//174
f 176//176 175//175 177//177
f 177//177 175//175 178//178
f 178//178 175//175 179//179
f 179//179 175//175 180//180
f 180//180 175//175 181//181
f 181//181 175//175 173//173
f 176//176 182//182 175//175