# Blender v2.82 (sub 7) OBJ File: ''
# www.blender.org
mtllib 19.mtl
o Cloth_19
v 0.230900 0.310792 0.410657
v -0.230900 0.310792 0.410657
v -0.230900 0.310792 -0.410657
v -0.230900 0.334936 -0.410657
v -0.230900 0.334936 0.410657
v 0.230900 0.334936 0.410657
v 0.230900 0.310792 -0.410657
v 0.230900 0.334936 -0.410657
v -0.182811 0.000000 -0.342983
v -0.204463 0.000000 -0.342983
v -0.204463 0.000000 -0.380475
v -0.182811 0.314503 -0.342983
v -0.204463 0.314503 -0.342983
v -0.204463 0.314503 -0.380475
v -0.182811 0.314503 -0.380475
v -0.182811 0.000000 -0.380475
v 0.203890 0.000000 -0.342983
v 0.182237 0.000000 -0.342983
v 0.182237 0.000000 -0.380475
v 0.203890 0.314503 -0.342983
v 0.182237 0.314503 -0.342983
v 0.182237 0.314503 -0.380475
v 0.203890 0.314503 -0.380475
v 0.203890 0.000000 -0.380475
v -0.182811 0.000000 0.370420
v -0.204463 0.000000 0.370420
v -0.204463 0.000000 0.332927
v -0.182811 0.314503 0.370420
v -0.204463 0.314503 0.370420
v -0.204463 0.314503 0.332927
v -0.182811 0.314503 0.332927
v -0.182811 0.000000 0.332927
v 0.203890 0.000000 0.370420
v 0.182237 0.000000 0.370420
v 0.182237 0.000000 0.332927
v 0.203890 0.314503 0.370420
v 0.182237 0.314503 0.370420
v 0.182237 0.314503 0.332927
v 0.203890 0.314503 0.332927
v 0.203890 0.000000 0.332927
v -0.204820 0.310792 0.370980
v -0.204820 0.286648 0.370980
v -0.204820 0.286648 -0.380491
v -0.211907 0.286648 -0.380491
v -0.211907 0.286648 0.370980
v -0.211907 0.310792 0.370980
v 0.211149 0.310792 0.370980
v 0.211149 0.286648 0.370980
v 0.211149 0.286648 -0.380491
v 0.204062 0.286648 -0.380491
v 0.204062 0.286648 0.370980
v 0.204062 0.310792 0.370980
v -0.211907 0.286648 0.378066
v 0.211149 0.286648 0.378066
v 0.211149 0.310792 0.378066
v -0.211907 0.310792 0.378066
v 0.211149 0.310792 -0.387578
v 0.211149 0.286648 -0.387578
v -0.211907 0.286648 -0.387578
v 0.211149 0.310792 -0.380491
v -0.211907 0.310792 -0.380492
v -0.211907 0.310792 -0.387578
v -0.204820 0.310792 -0.380492
v 0.211149 0.310792 -0.380492
v 0.204063 0.310792 -0.380492
vn 0.0000 -1.0000 -0.0000
vn 0.0000 1.0000 0.0000
vn -1.0000 0.0000 0.0000
vn 0.0000 0.0000 -1.0000
vn 1.0000 0.0000 0.0000
vn 0.0000 0.0000 1.0000
usemtl Default_OBJ.007
s off
f 1//1 2//1 3//1
f 4//2 5//2 6//2
f 3//3 2//3 5//3
f 7//4 3//4 4//4
f 1//5 7//5 8//5
f 6//6 5//6 2//6
f 9//1 10//1 11//1
f 12//6 13//6 10//6
f 14//4 15//4 16//4
f 13//3 14//3 11//3
f 15//5 12//5 9//5
f 17//1 18//1 19//1
f 20//6 21//6 18//6
f 22//4 23//4 24//4
f 21//3 22//3 19//3
f 23//5 20//5 17//5
f 25//1 26//1 27//1
f 28//6 29//6 26//6
f 30//4 31//4 32//4
f 29//3 30//3 27//3
f 31//5 28//5 25//5
f 33//1 34//1 35//1
f 36//6 37//6 34//6
f 38//4 39//4 40//4
f 37//3 38//3 35//3
f 39//5 36//5 33//5
f 41//5 42//5 43//5
f 44//3 45//3 46//3
f 44//1 43//1 42//1
f 47//5 48//5 49//5
f 50//3 51//3 52//3
f 50//1 49//1 48//1
f 47//4 48//4 45//4
f 53//6 54//6 55//6
f 56//3 46//3 45//3
f 53//1 45//1 48//1
f 54//5 48//5 47//5
f 57//4 58//4 59//4
f 44//6 49//6 60//6
f 61//3 62//3 59//3
f 44//1 59//1 58//1
f 49//5 58//5 57//5
f 3//1 7//1 1//1
f 6//2 8//2 4//2
f 5//3 4//3 3//3
f 4//4 8//4 7//4
f 8//5 6//5 1//5
f 2//6 1//6 6//6
f 11//1 16//1 9//1
f 10//6 9//6 12//6
f 16//4 11//4 14//4
f 11//3 10//3 13//3
f 9//5 16//5 15//5
f 19//1 24//1 17//1
f 18//6 17//6 20//6
f 24//4 19//4 22//4
f 19//3 18//3 21//3
f 17//5 24//5 23//5
f 27//1 32//1 25//1
f 26//6 25//6 28//6
f 32//4 27//4 30//4
f 27//3 26//3 29//3
f 25//5 32//5 31//5
f 35//1 40//1 33//1
f 34//6 33//6 36//6
f 40//4 35//4 38//4
f 35//3 34//3 37//3
f 33//5 40//5 39//5
f 43//5 63//5 41//5
f 46//3 61//3 44//3
f 42//1 45//1 44//1
f 49//5 64//5 47//5
f 52//3 65//3 50//3
f 48//1 51//1 50//1
f 45//4 46//4 47//4
f 55//6 56//6 53//6
f 45//3 53//3 56//3
f 48//1 54//1 53//1
f 47//5 55//5 54//5
f 59//4 62//4 57//4
f 60//6 61//6 44//6
f 59//3 44//3 61//3
f 58//1 49//1 44//1
f 57//5 60//5 49//5
