# Blender v2.82 (sub 7) OBJ File: ''
# www.blender.org
mtllib 43.mtl
o Cloth_43
v -0.175786 -0.020239 0.257911
v -0.173467 -0.074177 0.266080
v -0.138258 -0.039710 0.350995
v -0.132123 -0.094537 0.349467
v -0.138258 -0.039710 0.350995
v -0.173467 -0.074177 0.266080
v -0.148032 -0.114965 0.267812
v -0.123192 -0.119657 0.331866
v -0.165836 -0.098429 0.103009
v -0.198059 -0.047950 0.096929
v -0.175786 -0.020239 0.257911
v -0.207424 0.007704 0.137165
v -0.056861 -0.150900 0.365274
v -0.123192 -0.119657 0.331866
v -0.054776 -0.157734 0.285082
v -0.148032 -0.114965 0.267812
v -0.165836 -0.098429 0.103009
v -0.039710 -0.159228 0.125181
v 0.047493 -0.151940 0.298300
v 0.029208 -0.148358 0.364398
v 0.084236 -0.146397 0.143261
v 0.047493 -0.151940 0.298300
v 0.102179 -0.099158 0.306066
v 0.029208 -0.148358 0.364398
v 0.061000 -0.119579 0.377663
v 0.029208 -0.148358 0.364398
v 0.102179 -0.099158 0.306066
v 0.102179 -0.099158 0.306066
v 0.118461 -0.030819 0.310656
v 0.061000 -0.119579 0.377663
v 0.074398 -0.051679 0.375939
v 0.157437 -0.013310 0.216774
v 0.155507 -0.086801 0.153380
v 0.155507 -0.086801 0.153380
v 0.084236 -0.146397 0.143261
v 0.118461 -0.030819 0.310656
v 0.092105 0.026627 0.311264
v 0.074398 -0.051679 0.375939
v 0.053589 0.000203 0.365356
v 0.129072 0.052701 0.216048
v 0.157437 -0.013310 0.216774
v 0.022905 0.050934 0.322194
v 0.004808 0.015519 0.364365
v -0.201959 0.016567 0.037642
v -0.148900 -0.095492 -0.040088
v -0.186721 -0.042362 -0.045608
v -0.197427 0.026768 -0.057350
v -0.148900 -0.095492 -0.040088
v -0.019647 -0.157889 -0.020628
v 0.106572 -0.144390 0.000028
v 0.181220 -0.005324 0.128237
v 0.200929 -0.014002 0.030818
v 0.177274 -0.082833 0.012651
v 0.177274 -0.082833 0.012651
v 0.106572 -0.144390 0.000028
v 0.162146 0.034837 0.136133
v 0.181220 -0.005324 0.128237
v -0.178756 0.006509 -0.199812
v -0.166381 -0.053734 -0.191112
v -0.127780 -0.103115 -0.182671
v -0.020923 -0.157204 -0.164326
v -0.127780 -0.103115 -0.182671
v 0.096414 -0.146142 -0.147611
v 0.096414 -0.146142 -0.147611
v 0.162962 -0.091685 -0.139373
v 0.162962 -0.091685 -0.139373
v 0.189248 -0.025932 -0.068888
v 0.178522 -0.029475 -0.175293
v -0.139071 -0.014878 -0.365350
v -0.130254 -0.071968 -0.359395
v -0.101106 -0.114321 -0.332822
v -0.086420 -0.100116 -0.419899
v -0.094516 -0.030582 -0.446392
v -0.021216 -0.154908 -0.300032
v -0.101106 -0.114321 -0.332822
v -0.086420 -0.100116 -0.419899
v -0.012211 -0.126079 -0.429132
v 0.078517 -0.148647 -0.298770
v 0.086702 -0.119035 -0.412956
v 0.078517 -0.148647 -0.298770
v 0.135205 -0.103515 -0.317881
v 0.135205 -0.103515 -0.317881
v 0.153498 -0.044436 -0.300401
v 0.129191 -0.048367 -0.407846
v 0.086702 -0.119035 -0.412956
v 0.086702 -0.119035 -0.412956
v -0.119281 0.108248 -0.219654
v 0.020715 0.128040 -0.230295
v -0.088213 0.088517 -0.329250
v 0.022540 0.099441 -0.331706
v 0.028674 0.048598 -0.404147
v -0.074232 0.049123 -0.399077
v -0.124525 0.045738 -0.345511
v -0.160257 0.066896 -0.210800
v -0.139071 -0.014878 -0.365350
v -0.178756 0.006509 -0.199812
v -0.094516 -0.030582 -0.446392
v 0.075767 -0.055945 -0.450807
v 0.082401 0.038666 -0.390085
v 0.129191 -0.048367 -0.407846
v 0.119263 0.029595 -0.367707
v 0.019838 -0.051494 -0.468355
v 0.075767 -0.055945 -0.450807
v 0.019838 -0.051494 -0.468355
v -0.012211 -0.126079 -0.429132
v 0.007072 -0.050022 0.389861
v -0.111172 -0.002896 0.353305
v -0.092861 0.022815 0.343040
v -0.014830 -0.119137 0.391630
v -0.056861 -0.150900 0.365274
v -0.014830 -0.119137 0.391630
v -0.123192 -0.119657 0.331866
v -0.014830 -0.119137 0.391630
v 0.029208 -0.148358 0.364398
v 0.007072 -0.050022 0.389861
v -0.014830 -0.119137 0.391630
v -0.168874 0.075225 -0.121120
v -0.197427 0.026768 -0.057350
v -0.122926 0.112717 -0.159169
v -0.183006 0.071210 0.072959
v -0.179292 0.079199 0.014414
v -0.207424 0.007704 0.137165
v -0.201959 0.016567 0.037642
v -0.173782 0.080821 -0.045666
v -0.126271 0.122595 -0.062628
v -0.129329 0.124403 -0.013272
v -0.132593 0.117562 0.036202
v 0.035239 0.146837 -0.066929
v 0.039051 0.142642 -0.026020
v 0.030152 0.142036 -0.106858
v 0.140352 0.079830 -0.174833
v 0.147796 0.079162 -0.133380
v 0.131062 0.074835 -0.214339
v 0.168598 0.026391 -0.175819
v 0.156971 0.023552 -0.240626
v 0.142660 0.018557 -0.298029
v 0.153498 -0.044436 -0.300401
v 0.178522 -0.029475 -0.175293
v -0.136881 0.019582 0.300977
v -0.159709 0.038726 0.235156
v -0.178745 0.053860 0.160418
v -0.134359 0.098165 0.147832
v -0.121102 0.086261 0.206758
v -0.105864 0.066225 0.263327
v 0.023803 0.129167 0.143405
v 0.028460 0.114261 0.185583
v 0.154926 0.088194 0.033799
v 0.157388 0.083190 0.070693
v 0.017730 0.135304 0.103358
v 0.149103 0.087813 -0.001986
v 0.189309 0.038918 0.028661
v 0.184999 0.038728 -0.024988
v 0.176183 0.035660 -0.075313
v 0.189248 -0.025932 -0.068888
v 0.200929 -0.014002 0.030818
v -0.169112 0.075951 -0.069369
v -0.157354 0.077023 -0.101964
v -0.183140 0.051201 -0.072618
v -0.125118 0.112021 -0.081674
v -0.117898 0.100976 -0.129215
v 0.026334 0.130929 -0.122395
v 0.027264 0.110406 -0.184223
v 0.125133 0.067387 -0.225979
v 0.117963 0.052211 -0.290711
v 0.132806 0.019962 -0.304092
v 0.125233 -0.004570 -0.354540
v -0.179502 0.055454 0.133229
v -0.175859 0.065525 0.097300
v -0.196137 0.033459 0.124612
v -0.134844 0.094609 0.126601
v -0.132504 0.100786 0.068012
v 0.014932 0.130269 0.088880
v 0.034996 0.123398 0.010100
v 0.141607 0.082853 -0.019769
v 0.142299 0.076335 -0.093709
v 0.165865 0.038438 -0.087233
v 0.160713 0.036650 -0.131543
v 0.170824 0.003434 -0.144722
v 0.027616 0.082574 0.213715
v -0.095325 0.035628 0.294721
v 0.018525 0.061170 0.264737
v 0.144556 0.065353 0.098477
v 0.162146 0.034837 0.136133
v 0.129072 0.052701 0.216048
v 0.176593 0.014717 0.077826
v -0.125118 0.112021 -0.081674
v 0.026334 0.130929 -0.122395
v -0.169112 0.075951 -0.069369
v -0.183140 0.051201 -0.072618
v -0.157354 0.077023 -0.101964
v -0.117898 0.100976 -0.129215
v 0.027264 0.110406 -0.184223
v 0.117963 0.052211 -0.290711
v 0.125233 -0.004570 -0.354540
v 0.132806 0.019962 -0.304092
v 0.125133 0.067387 -0.225979
v -0.134844 0.094609 0.126601
v -0.179502 0.055454 0.133229
v -0.196137 0.033459 0.124612
v -0.175859 0.065525 0.097300
v -0.132504 0.100786 0.068012
v 0.034996 0.123398 0.010100
v 0.142299 0.076335 -0.093709
v 0.160713 0.036650 -0.131543
v 0.170824 0.003434 -0.144722
v 0.165865 0.038438 -0.087233
v 0.141607 0.082853 -0.019769
v 0.014932 0.130269 0.088880
v -0.116223 0.009419 0.314110
v -0.095325 0.035628 0.294721
v -0.095325 0.035628 0.294721
v 0.027616 0.082574 0.213715
v 0.144556 0.065353 0.098477
v 0.176593 0.014717 0.077826
v 0.018525 0.061170 0.264737
vt 0.946368 0.715229
vt 0.942766 0.722451
vt 0.888081 0.797514
vt 0.490713 0.103871
vt 0.481116 0.102520
vt 0.426045 0.177583
vt 0.465827 0.176053
vt 0.504683 0.119430
vt 0.437982 0.321736
vt 0.387580 0.327111
vt 0.422418 0.184805
vt 0.372933 0.291544
vt 0.203883 0.530088
vt 0.252430 0.508862
vt 0.202357 0.479139
vt 0.270612 0.468165
vt 0.283642 0.363458
vt 0.191330 0.377545
vt 0.127506 0.487536
vt 0.140889 0.529532
vt 0.100614 0.389032
vt 0.127506 0.487536
vt 0.087481 0.492471
vt 0.140889 0.529532
vt 0.494035 0.779211
vt 0.518106 0.772153
vt 0.462855 0.741115
vt 0.857190 0.142236
vt 0.882657 0.138179
vt 0.792780 0.078947
vt 0.813737 0.080470
vt 0.943621 0.221170
vt 0.940601 0.277210
vt 0.048451 0.395461
vt 0.100614 0.389032
vt 0.489357 0.761855
vt 0.530293 0.762392
vt 0.557794 0.819564
vt 0.590112 0.810209
vt 0.472878 0.678222
vt 0.428821 0.678864
vt 0.637769 0.772054
vt 0.665878 0.809332
vt 0.381480 0.379520
vt 0.464471 0.448234
vt 0.405315 0.453112
vt 0.388568 0.463492
vt 0.271246 0.272540
vt 0.176646 0.284905
vt 0.084266 0.298029
vt 0.980819 0.299435
vt 1.011647 0.385552
vt 0.974649 0.401612
vt 0.032519 0.306049
vt 0.084266 0.298029
vt 0.421508 0.607578
vt 0.391883 0.600598
vt 0.417772 0.589427
vt 0.437129 0.581736
vt 0.497506 0.574275
vt 0.177580 0.193606
vt 0.255788 0.181951
vt 0.091701 0.204226
vt 0.091701 0.204226
vt 0.042994 0.209460
vt 0.952262 0.535999
vt 0.993376 0.473691
vt 0.976599 0.567752
vt 0.479845 0.735761
vt 0.493636 0.730496
vt 0.539226 0.707006
vt 0.562197 0.783981
vt 0.549534 0.807401
vt 0.177795 0.107385
vt 0.236267 0.086552
vt 0.225518 0.031228
vt 0.171203 0.025361
vt 0.104800 0.108187
vt 0.098809 0.035639
vt 0.104800 0.108187
vt 0.063309 0.096045
vt 0.908847 0.693798
vt 0.937460 0.678347
vt 0.899441 0.773327
vt 0.832982 0.777844
vt 0.098809 0.035639
vt 0.858608 0.293067
vt 0.641173 0.283661
vt 0.810354 0.196186
vt 0.638336 0.194014
vt 0.628811 0.129977
vt 0.788639 0.134459
vt 0.866753 0.181811
vt 0.922249 0.300894
vt 0.889344 0.164273
vt 0.950981 0.310607
vt 0.820143 0.092633
vt 0.555669 0.088731
vt 0.545364 0.142409
vt 0.472690 0.126707
vt 0.488111 0.162190
vt 0.642533 0.073218
vt 0.815877 0.811303
vt 0.728399 0.826816
vt 0.678270 0.792143
vt 0.662362 0.831871
vt 0.846013 0.799556
vt 0.817573 0.790482
vt 0.674173 0.066600
vt 0.583797 0.769431
vt 0.580055 0.831768
vt 0.618748 0.782795
vt 0.696378 0.833434
vt 0.532260 0.805630
vt 0.708430 0.068163
vt 0.551450 0.786642
vt 0.935632 0.380170
vt 0.979980 0.436541
vt 0.864268 0.346535
vt 0.957581 0.551733
vt 0.951813 0.499981
vt 0.995506 0.608490
vt 0.987019 0.520514
vt 0.943256 0.446870
vt 0.869464 0.431876
vt 0.874214 0.475506
vt 0.879282 0.519241
vt 0.618614 0.428075
vt 0.612692 0.464237
vt 0.626515 0.392778
vt 0.455357 0.332688
vt 0.443795 0.369333
vt 0.469786 0.297765
vt 0.411487 0.331817
vt 0.429545 0.274528
vt 0.451772 0.223785
vt 0.434938 0.221687
vt 0.396074 0.332282
vt 0.885943 0.753299
vt 0.921398 0.695114
vt 0.950963 0.629046
vt 0.882026 0.617920
vt 0.861434 0.670010
vt 0.837768 0.720016
vt 0.636376 0.614007
vt 0.629142 0.651292
vt 0.432721 0.517116
vt 0.428897 0.549730
vt 0.645809 0.578606
vt 0.441765 0.485483
vt 0.379319 0.512575
vt 0.386013 0.465149
vt 0.399706 0.420662
vt 0.379415 0.426343
vt 0.361272 0.514481
vt 0.309650 0.641218
vt 0.273232 0.653782
vt 0.306020 0.626919
vt 0.295902 0.686432
vt 0.242787 0.694598
vt 0.250404 0.842055
vt 0.181326 0.844021
vt 0.134673 0.944838
vt 0.062352 0.938563
vt 0.047403 0.953967
vt -0.008961 0.947046
vt 0.302681 0.596385
vt 0.262920 0.603245
vt 0.291785 0.580180
vt 0.298766 0.642495
vt 0.233648 0.650009
vt 0.268366 0.798496
vt 0.182123 0.825849
vt 0.157120 0.937155
vt 0.074764 0.944334
vt 0.083814 0.967793
vt 0.034029 0.966419
vt 0.020126 0.977881
vt 0.186303 0.771795
vt 0.253266 0.633223
vt 0.240897 0.753328
vt 0.080513 0.910573
vt 0.125219 0.921409
vt 0.207307 0.873520
vt 0.063569 0.946600
vt 0.867673 0.415040
vt 0.632445 0.379043
vt 0.936003 0.425917
vt 0.957790 0.423044
vt 0.917741 0.397103
vt 0.856458 0.373014
vt 0.630999 0.324387
vt 0.490129 0.230253
vt 0.478839 0.173829
vt 0.467078 0.218425
vt 0.478994 0.287476
vt 0.882779 0.599153
vt 0.952139 0.605011
vt 0.977976 0.597395
vt 0.946481 0.573251
vt 0.879145 0.547361
vt 0.618991 0.496167
vt 0.452332 0.404400
vt 0.423733 0.370956
vt 0.408029 0.359306
vt 0.415731 0.410125
vt 0.453408 0.469763
vt 0.650154 0.565807
vt 0.853858 0.764908
vt 0.821401 0.747768
vt 0.821401 0.747768
vt 0.630453 0.676160
vt 0.448828 0.574291
vt 0.399069 0.556036
vt 0.644572 0.721263
vn -0.9337 0.1706 0.3149
vn -0.9361 -0.2699 0.2257
vn -0.6620 0.1733 0.7292
vn -0.6547 -0.3340 0.6781
vn -0.8385 -0.5141 0.1803
vn -0.6513 -0.5330 0.5401
vn -0.8414 -0.5397 -0.0283
vn -0.9369 -0.3493 -0.0141
vn -0.9843 0.1046 0.1419
vn -0.1817 -0.9806 0.0739
vn -0.4390 -0.8944 0.0859
vn -0.1954 -0.9802 0.0319
vn -0.4177 -0.9085 0.0057
vn -0.4229 -0.9045 -0.0550
vn -0.1720 -0.9849 -0.0203
vn 0.0494 -0.9985 0.0225
vn 0.0301 -0.9976 0.0624
vn 0.0943 -0.9955 0.0030
vn 0.6589 -0.7275 0.1911
vn 0.8183 -0.4890 0.3022
vn 0.3659 -0.7124 0.5989
vn 0.5577 -0.4484 0.6985
vn 0.8772 0.0734 0.4745
vn 0.5742 0.0929 0.8134
vn 0.9409 0.0697 0.3313
vn 0.8300 -0.5281 0.1794
vn 0.6320 -0.7682 0.1019
vn 0.5968 0.6169 0.5131
vn 0.3616 0.4942 0.7906
vn 0.7644 0.5357 0.3587
vn 0.0722 0.8958 0.4385
vn -0.0391 0.5941 0.8034
vn -0.9932 0.1036 -0.0531
vn -0.8104 -0.5789 -0.0906
vn -0.9215 -0.3771 -0.0925
vn -0.9857 0.1437 -0.0875
vn -0.4331 -0.9006 -0.0381
vn -0.1578 -0.9873 -0.0162
vn 0.1049 -0.9945 0.0042
vn 0.9717 0.1147 0.2065
vn 0.9974 -0.0225 0.0681
vn 0.8356 -0.5488 0.0263
vn 0.8355 -0.5488 0.0263
vn 0.6492 -0.7600 0.0299
vn 0.8972 0.3828 0.2204
vn -0.9837 0.0188 -0.1786
vn -0.8986 -0.4239 -0.1134
vn -0.7827 -0.6173 -0.0799
vn -0.1862 -0.9825 -0.0082
vn -0.4491 -0.8933 -0.0163
vn 0.0969 -0.9953 0.0018
vn 0.6323 -0.7735 -0.0435
vn 0.8308 -0.5516 -0.0741
vn 0.9919 -0.0861 -0.0929
vn 0.9893 -0.0474 -0.1377
vn -0.9171 0.0720 -0.3922
vn -0.8694 -0.3931 -0.2994
vn -0.7671 -0.6244 -0.1474
vn -0.5968 -0.4058 -0.6922
vn -0.5445 0.0920 -0.8337
vn -0.1808 -0.9773 -0.1106
vn -0.4080 -0.9043 -0.1254
vn -0.3566 -0.9078 -0.2210
vn -0.1224 -0.9668 -0.2244
vn 0.0707 -0.9896 -0.1254
vn 0.0873 -0.9705 -0.2248
vn 0.5987 -0.7946 -0.1007
vn 0.8147 -0.5535 -0.1730
vn 0.9793 -0.0618 -0.1930
vn 0.8281 0.0138 -0.5604
vn 0.5702 -0.5440 -0.6155
vn -0.4620 0.8664 -0.1896
vn 0.2744 0.9615 0.0137
vn -0.3630 0.8451 -0.3926
vn 0.2207 0.8986 -0.3794
vn 0.1316 0.6890 -0.7127
vn -0.2991 0.6866 -0.6627
vn -0.7567 0.5098 -0.4094
vn -0.8507 0.4808 -0.2124
vn 0.4363 0.0036 -0.8998
vn 0.4286 0.6663 -0.6102
vn 0.7721 0.5297 -0.3511
vn 0.0745 0.0217 -0.9970
vn -0.0676 -0.4415 -0.8947
vn -0.0053 0.1755 0.9845
vn -0.4694 0.4236 0.7747
vn -0.2943 0.7032 0.6473
vn -0.0805 -0.2803 0.9565
vn -0.3710 -0.2510 0.8941
vn -0.7343 0.6766 0.0546
vn -0.3271 0.9354 0.1345
vn -0.7525 0.6360 0.1708
vn -0.8280 0.5605 -0.0168
vn -0.8020 0.5836 -0.1271
vn -0.4317 0.8695 -0.2400
vn -0.4090 0.9123 0.0202
vn -0.3181 0.9090 0.2692
vn 0.2015 0.9793 -0.0174
vn 0.3213 0.9050 0.2788
vn 0.0515 0.9481 -0.3137
vn 0.6677 0.7239 -0.1735
vn 0.7723 0.6351 0.0177
vn 0.4336 0.8054 -0.4042
vn 0.9492 0.3048 -0.0783
vn 0.9191 0.3292 -0.2166
vn 0.7267 0.5663 -0.3889
vn 0.9792 -0.0618 -0.1930
vn -0.5442 0.5920 0.5944
vn -0.7524 0.5515 0.3603
vn -0.7781 0.5884 0.2198
vn -0.4638 0.8820 0.0833
vn -0.3995 0.8554 0.3298
vn -0.2166 0.8051 0.5521
vn 0.1479 0.9626 0.2270
vn 0.3002 0.8068 0.5089
vn 0.6008 0.7993 -0.0129
vn 0.6878 0.6626 0.2966
vn 0.0278 0.9978 -0.0610
vn 0.4730 0.8537 -0.2179
vn 0.9205 0.3810 0.0863
vn 0.9053 0.4073 -0.1210
vn 0.7790 0.5672 -0.2674
vn -0.7618 0.5954 -0.2552
vn -0.6863 0.6848 -0.2452
vn -0.8192 0.5010 -0.2790
vn -0.4617 0.8472 -0.2627
vn -0.3253 0.9090 -0.2606
vn -0.0700 0.9479 -0.3109
vn 0.0970 0.9465 -0.3078
vn 0.4094 0.8772 -0.2510
vn 0.7480 0.6123 -0.2562
vn 0.7986 0.5040 -0.3288
vn 0.7790 0.5099 -0.3649
vn -0.7411 0.6623 0.1105
vn -0.6711 0.7342 0.1028
vn -0.8099 0.5809 0.0807
vn -0.4367 0.8970 0.0681
vn -0.2789 0.9561 0.0897
vn -0.1181 0.9854 -0.1229
vn 0.2532 0.9674 -0.0033
vn 0.4173 0.9051 -0.0818
vn 0.7946 0.6059 -0.0390
vn 0.8194 0.5610 -0.1179
vn 0.9118 0.3962 -0.1077
vn 0.9350 0.3331 -0.1222
vn 0.3684 0.8330 0.4129
vn -0.1103 0.9234 0.3677
vn 0.0624 0.9390 0.3381
vn 0.6878 0.6868 0.2353
vn 0.5993 0.7751 0.2001
vn -0.0260 0.9732 -0.2283
vn 0.8500 0.5259 0.0291
vn -0.4465 0.7697 -0.4564
vn -0.1370 0.8222 -0.5525
vn -0.7561 0.5896 -0.2839
vn -0.8623 0.2528 -0.4387
vn -0.5438 0.8116 0.2133
vn -0.2054 0.9094 0.3616
vn 0.3193 0.8992 0.2993
vn 0.6277 0.7601 -0.1679
vn 0.9174 0.3407 -0.2059
vn 0.4292 0.7633 -0.4829
vn 0.0371 0.8372 -0.5457
vn -0.4730 0.8701 -0.1385
vn -0.7546 0.6548 0.0428
vn -0.9214 0.3292 -0.2065
vn -0.6345 0.6999 0.3280
vn -0.2755 0.8556 0.4382
vn 0.2688 0.8375 0.4757
vn 0.7232 0.6694 0.1698
vn 0.9527 0.2811 0.1158
vn 0.9617 0.2733 -0.0196
vn 0.6287 0.6881 -0.3624
vn 0.3352 0.8645 -0.3746
vn -0.0841 0.9465 -0.3116
vn -0.4529 0.6978 0.5549
vn -0.3326 0.9072 0.2575
vn -0.0490 0.7028 0.7097
vn 0.3568 0.6224 0.6966
vn 0.7085 0.3999 0.5815
vn 0.8875 0.3858 0.2519
vn 0.0074 0.9830 0.1832
usemtl material_0.018
s 1
f 1/1/1 2/2/2 3/3/3
f 4/4/4 5/5/3 6/6/2
f 6/6/2 7/7/5 4/4/4
f 8/8/6 4/4/4 7/7/5
f 7/7/5 6/6/2 9/9/7
f 10/10/8 9/9/7 6/6/2
f 6/6/2 11/11/1 10/10/8
f 12/12/9 10/10/8 11/11/1
f 13/13/10 14/14/11 15/15/12
f 16/16/13 15/15/12 14/14/11
f 16/16/13 17/17/14 15/15/12
f 18/18/15 15/15/12 17/17/14
f 15/15/12 19/19/16 13/13/10
f 20/20/17 13/13/10 19/19/16
f 19/19/16 15/15/12 21/21/18
f 18/18/15 21/21/18 15/15/12
f 22/22/19 23/23/20 24/24/21
f 25/25/22 26/26/21 27/27/20
f 28/28/20 29/29/23 30/30/22
f 31/31/24 30/30/22 29/29/23
f 29/29/23 28/28/20 32/32/25
f 33/33/26 32/32/25 28/28/20
f 23/23/20 22/22/19 34/34/26
f 35/35/27 34/34/26 22/22/19
f 36/36/23 37/37/28 38/38/24
f 39/39/29 38/38/24 37/37/28
f 37/37/28 36/36/23 40/40/30
f 41/41/25 40/40/30 36/36/23
f 37/37/28 42/42/31 39/39/29
f 43/43/32 39/39/29 42/42/31
f 37/37/28 40/40/30 42/42/31
f 10/10/8 12/12/9 44/44/33
f 9/9/7 10/10/8 45/45/34
f 46/46/35 45/45/34 10/10/8
f 10/10/8 44/44/33 46/46/35
f 47/47/36 46/46/35 44/44/33
f 17/17/14 48/48/37 18/18/15
f 49/49/38 18/18/15 48/48/37
f 21/21/18 18/18/15 50/50/39
f 49/49/38 50/50/39 18/18/15
f 32/32/25 33/33/26 51/51/40
f 51/51/40 33/33/26 52/52/41
f 53/53/42 52/52/41 33/33/26
f 34/34/26 35/35/27 54/54/43
f 55/55/44 54/54/43 35/35/27
f 56/56/45 40/40/30 57/57/40
f 41/41/25 57/57/40 40/40/30
f 58/58/46 59/59/47 47/47/36
f 46/46/35 47/47/36 59/59/47
f 59/59/47 60/60/48 46/46/35
f 45/45/34 46/46/35 60/60/48
f 49/49/38 48/48/37 61/61/49
f 62/62/50 61/61/49 48/48/37
f 61/61/49 63/63/51 49/49/38
f 50/50/39 49/49/38 63/63/51
f 64/64/52 65/65/53 55/55/44
f 54/54/43 55/55/44 65/65/53
f 66/66/53 67/67/54 53/53/42
f 52/52/41 53/53/42 67/67/54
f 66/66/53 68/68/55 67/67/54
f 69/69/56 70/70/57 58/58/46
f 59/59/47 58/58/46 70/70/57
f 70/70/57 71/71/58 59/59/47
f 60/60/48 59/59/47 71/71/58
f 70/70/57 72/72/59 71/71/58
f 70/70/57 69/69/56 72/72/59
f 73/73/60 72/72/59 69/69/56
f 61/61/49 62/62/50 74/74/61
f 75/75/62 74/74/61 62/62/50
f 75/75/62 76/76/63 74/74/61
f 77/77/64 74/74/61 76/76/63
f 74/74/61 78/78/65 61/61/49
f 63/63/51 61/61/49 78/78/65
f 78/78/65 74/74/61 79/79/66
f 77/77/64 79/79/66 74/74/61
f 80/80/67 81/81/68 64/64/52
f 65/65/53 64/64/52 81/81/68
f 82/82/68 83/83/69 66/66/53
f 68/68/55 66/66/53 83/83/69
f 83/83/69 82/82/68 84/84/70
f 85/85/71 84/84/70 82/82/68
f 80/80/67 86/86/71 81/81/68
f 87/87/72 88/88/73 89/89/74
f 90/90/75 89/89/74 88/88/73
f 90/90/75 91/91/76 89/89/74
f 92/92/77 89/89/74 91/91/76
f 89/89/74 93/93/78 87/87/72
f 94/94/79 87/87/72 93/93/78
f 93/93/78 95/95/56 94/94/79
f 96/96/46 94/94/79 95/95/56
f 95/95/56 93/93/78 97/97/60
f 92/92/77 97/97/60 93/93/78
f 89/89/74 92/92/77 93/93/78
f 98/98/80 99/99/81 100/100/70
f 101/101/82 100/100/70 99/99/81
f 99/99/81 98/98/80 91/91/76
f 102/102/83 91/91/76 98/98/80
f 97/97/60 92/92/77 102/102/83
f 91/91/76 102/102/83 92/92/77
f 84/84/70 85/85/71 103/103/80
f 103/103/80 85/85/71 104/104/83
f 105/105/84 104/104/83 85/85/71
f 73/73/60 104/104/83 72/72/59
f 105/105/84 72/72/59 104/104/83
f 106/106/85 39/39/29 43/43/32
f 43/43/32 42/42/31 107/107/86
f 108/108/87 107/107/86 42/42/31
f 106/106/85 43/43/32 3/3/3
f 107/107/86 3/3/3 43/43/32
f 4/4/4 8/8/6 109/109/88
f 110/110/89 111/111/88 112/112/6
f 106/106/85 3/3/3 113/113/88
f 4/4/4 109/109/88 5/5/3
f 111/111/88 110/110/89 114/114/21
f 115/115/85 109/109/88 31/31/24
f 30/30/22 31/31/24 109/109/88
f 26/26/21 25/25/22 116/116/88
f 117/117/90 94/94/79 118/118/36
f 96/96/46 118/118/36 94/94/79
f 94/94/79 117/117/90 87/87/72
f 119/119/91 87/87/72 117/117/90
f 88/88/73 87/87/72 119/119/91
f 90/90/75 88/88/73 99/99/81
f 101/101/82 99/99/81 88/88/73
f 91/91/76 90/90/75 99/99/81
f 120/120/92 121/121/93 122/122/9
f 123/123/33 122/122/9 121/121/93
f 121/121/93 124/124/94 123/123/33
f 118/118/36 123/123/33 124/124/94
f 124/124/94 121/121/93 125/125/95
f 126/126/96 125/125/95 121/121/93
f 121/121/93 120/120/92 126/126/96
f 127/127/97 126/126/96 120/120/92
f 126/126/96 127/127/97 128/128/98
f 129/129/99 128/128/98 127/127/97
f 125/125/95 126/126/96 130/130/100
f 128/128/98 130/130/100 126/126/96
f 128/128/98 129/129/99 131/131/101
f 132/132/102 131/131/101 129/129/99
f 130/130/100 128/128/98 133/133/103
f 131/131/101 133/133/103 128/128/98
f 134/134/104 135/135/105 132/132/102
f 131/131/101 132/132/102 135/135/105
f 135/135/105 136/136/106 131/131/101
f 133/133/103 131/131/101 136/136/106
f 136/136/106 135/135/105 100/100/70
f 137/137/107 100/100/70 135/135/105
f 135/135/105 134/134/104 137/137/107
f 138/138/55 137/137/107 134/134/104
f 139/139/108 140/140/109 3/3/3
f 1/1/1 3/3/3 140/140/109
f 140/140/109 141/141/110 1/1/1
f 122/122/9 1/1/1 141/141/110
f 141/141/110 140/140/109 142/142/111
f 143/143/112 142/142/111 140/140/109
f 140/140/109 139/139/108 143/143/112
f 144/144/113 143/143/112 139/139/108
f 145/145/114 146/146/115 147/147/116
f 148/148/117 147/147/116 146/146/115
f 149/149/118 145/145/114 150/150/119
f 147/147/116 150/150/119 145/145/114
f 151/151/120 152/152/121 148/148/117
f 147/147/116 148/148/117 152/152/121
f 152/152/121 153/153/122 147/147/116
f 150/150/119 147/147/116 153/153/122
f 153/153/122 152/152/121 138/138/55
f 154/154/54 138/138/55 152/152/121
f 152/152/121 151/151/120 154/154/54
f 155/155/41 154/154/54 151/151/120
f 156/156/123 157/157/124 158/158/125
f 156/156/123 159/159/126 157/157/124
f 160/160/127 157/157/124 159/159/126
f 161/161/128 162/162/129 159/159/126
f 160/160/127 159/159/126 162/162/129
f 163/163/130 164/164/131 161/161/128
f 162/162/129 161/161/128 164/164/131
f 165/165/132 164/164/131 163/163/130
f 166/166/133 164/164/131 165/165/132
f 167/167/134 168/168/135 169/169/136
f 167/167/134 170/170/137 168/168/135
f 171/171/138 168/168/135 170/170/137
f 172/172/139 173/173/140 170/170/137
f 171/171/138 170/170/137 173/173/140
f 174/174/141 175/175/142 172/172/139
f 173/173/140 172/172/139 175/175/142
f 176/176/143 177/177/144 174/174/141
f 175/175/142 174/174/141 177/177/144
f 176/176/143 178/178/145 177/177/144
f 179/179/146 180/180/147 181/181/148
f 182/182/149 179/179/146 183/183/150
f 181/181/148 183/183/150 179/179/146
f 181/181/148 184/184/151 183/183/150
f 182/182/149 183/183/150 185/185/152
f 125/125/95 130/130/100 186/186/153
f 187/187/154 186/186/153 130/130/100
f 186/186/153 188/188/155 125/125/95
f 124/124/94 125/125/95 188/188/155
f 188/188/155 189/189/156 124/124/94
f 118/118/36 124/124/94 189/189/156
f 189/189/156 190/190/157 118/118/36
f 117/117/90 118/118/36 190/190/157
f 190/190/157 191/191/158 117/117/90
f 119/119/91 117/117/90 191/191/158
f 88/88/73 119/119/91 192/192/159
f 191/191/158 192/192/159 119/119/91
f 101/101/82 88/88/73 193/193/160
f 192/192/159 193/193/160 88/88/73
f 194/194/161 101/101/82 193/193/160
f 100/100/70 101/101/82 194/194/161
f 194/194/161 195/195/162 100/100/70
f 136/136/106 100/100/70 195/195/162
f 195/195/162 196/196/163 136/136/106
f 133/133/103 136/136/106 196/196/163
f 130/130/100 133/133/103 187/187/154
f 196/196/163 187/187/154 133/133/103
f 197/197/164 198/198/165 142/142/111
f 141/141/110 142/142/111 198/198/165
f 198/198/165 199/199/166 141/141/110
f 122/122/9 141/141/110 199/199/166
f 199/199/166 200/200/167 122/122/9
f 120/120/92 122/122/9 200/200/167
f 200/200/167 201/201/168 120/120/92
f 127/127/97 120/120/92 201/201/168
f 129/129/99 127/127/97 202/202/169
f 201/201/168 202/202/169 127/127/97
f 132/132/102 129/129/99 203/203/170
f 202/202/169 203/203/170 129/129/99
f 203/203/170 204/204/171 132/132/102
f 134/134/104 132/132/102 204/204/171
f 204/204/171 205/205/172 134/134/104
f 138/138/55 134/134/104 205/205/172
f 205/205/172 206/206/173 138/138/55
f 153/153/122 138/138/55 206/206/173
f 206/206/173 207/207/174 153/153/122
f 150/150/119 153/153/122 207/207/174
f 149/149/118 150/150/119 208/208/175
f 207/207/174 208/208/175 150/150/119
f 142/142/111 149/149/118 197/197/164
f 208/208/175 197/197/164 149/149/118
f 107/107/86 108/108/87 209/209/176
f 210/210/177 209/209/176 108/108/87
f 3/3/3 107/107/86 209/209/176
f 139/139/108 3/3/3 209/209/176
f 144/144/113 139/139/108 211/211/178
f 209/209/176 211/211/178 139/139/108
f 146/146/115 144/144/113 212/212/179
f 211/211/178 212/212/179 144/144/113
f 148/148/117 146/146/115 213/213/180
f 212/212/179 213/213/180 146/146/115
f 151/151/120 148/148/117 214/214/181
f 213/213/180 214/214/181 148/148/117
f 155/155/41 151/151/120 214/214/181
f 56/56/45 57/57/40 214/214/181
f 42/42/31 40/40/30 215/215/182
f 210/210/177 108/108/87 215/215/182
f 42/42/31 215/215/182 108/108/87
f 144/144/113 146/146/115 143/143/112
f 145/145/114 143/143/112 146/146/115
f 149/149/118 142/142/111 145/145/114
f 143/143/112 145/145/114 142/142/111
f 38/38/24 39/39/29 106/106/85
f 155/155/41 214/214/181 57/57/40
