# Blender v2.82 (sub 7) OBJ File: ''
# www.blender.org
mtllib 46.mtl
o Cloth_46
v -0.347511 0.018826 0.060838
v -0.347511 0.018826 -0.060838
v -0.329532 0.018826 -0.060838
v -0.329532 0.422225 0.060838
v -0.329532 0.422225 -0.060838
v -0.347511 0.422225 -0.060838
v -0.329532 0.018826 0.060838
v -0.329532 0.350196 -0.060838
v -0.347511 0.350196 0.060838
v -0.347511 0.018826 -0.215803
v -0.329532 0.018826 -0.215803
v -0.329532 0.018826 0.215803
v -0.347511 0.018826 0.215803
v -0.329532 0.422225 -0.215803
v -0.347511 0.422225 -0.215803
v -0.347511 0.422225 0.060838
v -0.347511 0.422225 0.215803
v -0.329532 0.422225 0.215803
v -0.329532 0.350196 -0.215803
v -0.329532 0.386190 0.215803
v -0.347511 0.350196 0.215803
v -0.347511 0.386190 -0.215803
v -0.347511 0.386190 0.060838
v -0.347511 0.386190 0.215803
v -0.347511 0.350196 -0.215803
v -0.329532 0.386190 -0.060838
v -0.329532 0.386190 -0.215803
v -0.329532 0.350196 0.215803
v -0.347511 0.359103 0.215803
v -0.347511 0.368193 0.215803
v -0.347511 0.368193 0.071933
v -0.347511 0.377283 -0.215803
v -0.347511 0.368193 -0.215803
v -0.347511 0.368193 -0.071933
v -0.329532 0.359103 -0.215803
v -0.329532 0.368193 -0.215803
v -0.329532 0.368193 -0.071933
v -0.329532 0.377283 0.215803
v -0.329532 0.368193 0.215803
v -0.329532 0.368193 0.071933
v -0.347511 0.382515 0.215803
v -0.347511 0.377283 0.215803
v -0.347511 0.382515 0.065718
v -0.347511 0.353872 0.065718
v -0.347511 0.359103 0.070107
v -0.347511 0.353872 0.215803
v -0.347511 0.353872 -0.215803
v -0.347511 0.350196 -0.060838
v -0.347511 0.359103 -0.215803
v -0.347511 0.353872 -0.065718
v -0.347511 0.382515 -0.065718
v -0.347511 0.386190 -0.060838
v -0.347511 0.377283 -0.070107
v -0.347511 0.382515 -0.215803
v -0.329532 0.382515 -0.215803
v -0.329532 0.377283 -0.215803
v -0.329532 0.382515 -0.065718
v -0.329532 0.353872 -0.065718
v -0.329532 0.359103 -0.070107
v -0.329532 0.353872 -0.215803
v -0.329532 0.353872 0.215803
v -0.329532 0.350196 0.060838
v -0.329532 0.359103 0.215803
v -0.329532 0.353872 0.065718
v -0.329532 0.382515 0.065718
v -0.329532 0.386190 0.060838
v -0.329532 0.377283 0.070107
v -0.329532 0.382515 0.215803
v -0.347511 0.377283 0.070107
v -0.347511 0.359103 -0.070107
v -0.329532 0.377283 -0.070107
v -0.329532 0.359103 0.070107
v -0.359304 0.000000 -0.215475
v -0.359304 0.000000 -0.273009
v -0.301770 0.000000 -0.273009
v -0.359304 0.430511 -0.215475
v -0.301770 0.430511 -0.215475
v -0.301770 0.430511 -0.273009
v -0.301770 0.000000 -0.215475
v -0.359304 0.430511 -0.273009
v 0.301814 0.000000 -0.215475
v 0.301814 0.000000 -0.273009
v 0.359348 0.000000 -0.273009
v 0.301814 0.430511 -0.215475
v 0.359348 0.430511 -0.215475
v 0.359348 0.430511 -0.273009
v 0.359348 0.000000 -0.215475
v 0.301814 0.430511 -0.273009
v 0.347511 0.018826 -0.060838
v 0.347511 0.018826 0.060838
v 0.329532 0.018826 0.060838
v 0.329532 0.422225 -0.060838
v 0.329532 0.422225 0.060838
v 0.347511 0.422225 0.060838
v 0.329532 0.018826 -0.060838
v 0.329532 0.350196 0.060838
v 0.347511 0.350196 -0.060838
v 0.347511 0.018826 0.215803
v 0.329532 0.018826 0.215803
v 0.329532 0.018826 -0.215803
v 0.347511 0.018826 -0.215803
v 0.329532 0.422225 0.215803
v 0.347511 0.422225 0.215803
v 0.347511 0.422225 -0.060838
v 0.347511 0.422225 -0.215803
v 0.329532 0.422225 -0.215803
v 0.329532 0.350196 0.215803
v 0.329532 0.386190 -0.215803
v 0.347511 0.350196 -0.215803
v 0.347511 0.386190 0.215803
v 0.347511 0.386190 -0.060838
v 0.347511 0.386190 -0.215803
v 0.347511 0.350196 0.215803
v 0.329532 0.386190 0.060838
v 0.329532 0.386190 0.215803
v 0.329532 0.350196 -0.215803
v 0.347511 0.359103 -0.215803
v 0.347511 0.368193 -0.215803
v 0.347511 0.368193 -0.071933
v 0.347511 0.377283 0.215803
v 0.347511 0.368193 0.215803
v 0.347511 0.368193 0.071933
v 0.329532 0.359103 0.215803
v 0.329532 0.368193 0.215803
v 0.329532 0.368193 0.071933
v 0.329532 0.377283 -0.215803
v 0.329532 0.368193 -0.215803
v 0.329532 0.368193 -0.071933
v 0.347511 0.382515 -0.215803
v 0.347511 0.377283 -0.215803
v 0.347511 0.382515 -0.065718
v 0.347511 0.353872 -0.065718
v 0.347511 0.359103 -0.070107
v 0.347511 0.353872 -0.215803
v 0.347511 0.353872 0.215803
v 0.347511 0.350196 0.060838
v 0.347511 0.359103 0.215803
v 0.347511 0.353872 0.065718
v 0.347511 0.382515 0.065718
v 0.347511 0.386190 0.060838
v 0.347511 0.377283 0.070107
v 0.347511 0.382515 0.215803
v 0.329532 0.382515 0.215803
v 0.329532 0.377283 0.215803
v 0.329532 0.382515 0.065718
v 0.329532 0.353872 0.065718
v 0.329532 0.359103 0.070107
v 0.329532 0.353872 0.215803
v 0.329532 0.353872 -0.215803
v 0.329532 0.350196 -0.060838
v 0.329532 0.359103 -0.215803
v 0.329532 0.353872 -0.065718
v 0.329532 0.382515 -0.065718
v 0.329532 0.386190 -0.060838
v 0.329532 0.377283 -0.070107
v 0.329532 0.382515 -0.215803
v 0.347511 0.377283 -0.070107
v 0.347511 0.359103 0.070107
v 0.329532 0.377283 0.070107
v 0.329532 0.359103 -0.070107
v 0.359304 0.000000 0.215475
v 0.359304 0.000000 0.273009
v 0.301770 0.000000 0.273009
v 0.359304 0.430511 0.215475
v 0.301770 0.430511 0.215475
v 0.301770 0.430511 0.273009
v 0.301770 0.000000 0.215475
v 0.359304 0.430511 0.273009
v -0.301814 0.000000 0.215475
v -0.301814 0.000000 0.273009
v -0.359348 0.000000 0.273009
v -0.301814 0.430511 0.215475
v -0.359348 0.430511 0.215475
v -0.359348 0.430511 0.273009
v -0.359348 0.000000 0.215475
v -0.301814 0.430511 0.273009
v -0.302058 0.308507 -0.252236
v -0.302058 0.412696 -0.252236
v 0.302058 0.412696 -0.252236
v -0.302058 0.308507 -0.234976
v 0.302058 0.308507 -0.234976
v 0.302058 0.412696 -0.234976
v 0.302058 0.308507 -0.252236
v -0.302058 0.412696 -0.234976
v -0.302058 0.169053 -0.252236
v -0.302058 0.273243 -0.252236
v 0.302058 0.273243 -0.252236
v -0.302058 0.169053 -0.234976
v 0.302058 0.169053 -0.234976
v 0.302058 0.273243 -0.234976
v 0.302058 0.169053 -0.252236
v -0.302058 0.273243 -0.234976
v -0.302058 0.029626 -0.252236
v -0.302058 0.133812 -0.252236
v 0.302058 0.133812 -0.252236
v -0.302058 0.029626 -0.234976
v 0.302058 0.029626 -0.234976
v 0.302058 0.133812 -0.234976
v 0.302058 0.029626 -0.252236
v -0.302058 0.133812 -0.234976
v 0.302058 0.308507 0.252236
v 0.302058 0.412696 0.252236
v -0.302058 0.412696 0.252236
v 0.302058 0.308507 0.234976
v -0.302058 0.308507 0.234976
v -0.302058 0.412696 0.234976
v -0.302058 0.308507 0.252236
v 0.302058 0.412696 0.234976
v 0.302058 0.169053 0.252236
v 0.302058 0.273243 0.252236
v -0.302058 0.273243 0.252236
v 0.302058 0.169053 0.234976
v -0.302058 0.169053 0.234976
v -0.302058 0.273243 0.234976
v -0.302058 0.169053 0.252236
v 0.302058 0.273243 0.234976
v 0.302058 0.029626 0.252236
v 0.302058 0.133812 0.252236
v -0.302058 0.133812 0.252236
v 0.302058 0.029626 0.234976
v -0.302058 0.029626 0.234976
v -0.302058 0.133812 0.234976
v -0.302058 0.029626 0.252236
v 0.302058 0.133812 0.234976
v -0.346824 0.001831 0.249550
v -0.346824 0.001831 -0.249415
v 0.346945 0.001831 -0.249415
v -0.346824 0.017171 0.249550
v 0.346945 0.017171 0.249550
v 0.346945 0.017171 -0.249415
v 0.346945 0.001831 0.249550
v -0.346824 0.017171 -0.249415
vn 0.0000 -1.0000 -0.0000
vn 0.0000 1.0000 0.0000
vn 1.0000 -0.0000 0.0000
vn -1.0000 0.0000 0.0000
vn 0.0000 -0.1970 0.9804
vn 0.0000 0.1970 0.9804
vn 0.0000 0.6427 0.7661
vn 0.0000 0.7988 0.6016
vn 0.0000 0.7988 -0.6016
vn 0.0000 0.6427 -0.7661
vn 0.0000 0.1970 -0.9804
vn 0.0000 -0.1970 -0.9804
vn 0.0000 -0.6427 -0.7661
vn 0.0000 -0.7988 -0.6016
vn 0.0000 -0.7988 0.6016
vn 0.0000 -0.6427 0.7661
vn 0.0000 -0.0000 1.0000
vn 0.0000 0.0000 -1.0000
usemtl Default_OBJ.022
s off
f 1//1 2//1 3//1
f 4//2 5//2 6//2
f 7//3 3//3 8//3
f 2//4 1//4 9//4
f 2//1 10//1 11//1
f 7//1 12//1 13//1
f 5//2 14//2 15//2
f 16//2 17//2 18//2
f 3//3 11//3 19//3
f 4//3 18//3 20//3
f 1//4 13//4 21//4
f 6//4 15//4 22//4
f 23//4 16//4 6//4
f 24//4 17//4 16//4
f 25//4 10//4 2//4
f 26//3 5//3 4//3
f 27//3 14//3 5//3
f 28//3 12//3 7//3
f 29//4 30//4 31//4
f 32//4 33//4 34//4
f 35//3 36//3 37//3
f 38//3 39//3 40//3
f 41//4 24//4 23//4
f 42//4 41//4 43//4
f 44//4 9//4 21//4
f 45//4 44//4 46//4
f 47//4 25//4 48//4
f 49//4 47//4 50//4
f 51//4 52//4 22//4
f 53//4 51//4 54//4
f 55//3 27//3 26//3
f 56//3 55//3 57//3
f 58//3 8//3 19//3
f 59//3 58//3 60//3
f 61//3 28//3 62//3
f 63//3 61//3 64//3
f 65//3 66//3 20//3
f 67//3 65//3 68//3
f 30//4 42//4 69//4
f 33//4 49//4 70//4
f 36//3 56//3 71//3
f 39//3 63//3 72//3
f 53//5 34//5 37//5
f 34//6 70//6 59//6
f 70//7 50//7 58//7
f 50//8 48//8 8//8
f 48//2 9//2 62//2
f 9//9 44//9 64//9
f 44//10 45//10 72//10
f 45//11 31//11 40//11
f 31//12 69//12 67//12
f 69//13 43//13 65//13
f 43//14 23//14 66//14
f 23//1 52//1 26//1
f 52//15 51//15 57//15
f 51//16 53//16 71//16
f 73//1 74//1 75//1
f 76//2 77//2 78//2
f 73//17 79//17 77//17
f 79//3 75//3 78//3
f 75//18 74//18 80//18
f 74//4 73//4 76//4
f 81//1 82//1 83//1
f 84//2 85//2 86//2
f 81//17 87//17 85//17
f 87//3 83//3 86//3
f 83//18 82//18 88//18
f 82//4 81//4 84//4
f 89//1 90//1 91//1
f 92//2 93//2 94//2
f 95//4 91//4 96//4
f 90//3 89//3 97//3
f 90//1 98//1 99//1
f 95//1 100//1 101//1
f 93//2 102//2 103//2
f 104//2 105//2 106//2
f 91//4 99//4 107//4
f 92//4 106//4 108//4
f 89//3 101//3 109//3
f 94//3 103//3 110//3
f 111//3 104//3 94//3
f 112//3 105//3 104//3
f 113//3 98//3 90//3
f 114//4 93//4 92//4
f 115//4 102//4 93//4
f 116//4 100//4 95//4
f 117//3 118//3 119//3
f 120//3 121//3 122//3
f 123//4 124//4 125//4
f 126//4 127//4 128//4
f 129//3 112//3 111//3
f 130//3 129//3 131//3
f 132//3 97//3 109//3
f 133//3 132//3 134//3
f 135//3 113//3 136//3
f 137//3 135//3 138//3
f 139//3 140//3 110//3
f 141//3 139//3 142//3
f 143//4 115//4 114//4
f 144//4 143//4 145//4
f 146//4 96//4 107//4
f 147//4 146//4 148//4
f 149//4 116//4 150//4
f 151//4 149//4 152//4
f 153//4 154//4 108//4
f 155//4 153//4 156//4
f 118//3 130//3 157//3
f 121//3 137//3 158//3
f 124//4 144//4 159//4
f 127//4 151//4 160//4
f 141//12 122//12 125//12
f 122//11 158//11 147//11
f 158//10 138//10 146//10
f 138//9 136//9 96//9
f 136//2 97//2 150//2
f 97//8 132//8 152//8
f 132//7 133//7 160//7
f 133//6 119//6 128//6
f 119//5 157//5 155//5
f 157//16 131//16 153//16
f 131//15 111//15 154//15
f 111//1 140//1 114//1
f 140//14 139//14 145//14
f 139//13 141//13 159//13
f 161//1 162//1 163//1
f 164//2 165//2 166//2
f 161//18 167//18 165//18
f 167//4 163//4 166//4
f 163//17 162//17 168//17
f 162//3 161//3 164//3
f 169//1 170//1 171//1
f 172//2 173//2 174//2
f 169//18 175//18 173//18
f 175//4 171//4 174//4
f 171//17 170//17 176//17
f 170//3 169//3 172//3
f 177//18 178//18 179//18
f 180//17 181//17 182//17
f 177//1 183//1 181//1
f 179//2 178//2 184//2
f 185//18 186//18 187//18
f 188//17 189//17 190//17
f 185//1 191//1 189//1
f 187//2 186//2 192//2
f 193//18 194//18 195//18
f 196//17 197//17 198//17
f 193//1 199//1 197//1
f 195//2 194//2 200//2
f 201//17 202//17 203//17
f 204//18 205//18 206//18
f 201//1 207//1 205//1
f 203//2 202//2 208//2
f 209//17 210//17 211//17
f 212//18 213//18 214//18
f 209//1 215//1 213//1
f 211//2 210//2 216//2
f 217//17 218//17 219//17
f 220//18 221//18 222//18
f 217//1 223//1 221//1
f 219//2 218//2 224//2
f 225//1 226//1 227//1
f 228//2 229//2 230//2
f 225//17 231//17 229//17
f 231//3 227//3 230//3
f 227//18 226//18 232//18
f 226//4 225//4 228//4
f 3//1 7//1 1//1
f 6//2 16//2 4//2
f 8//3 62//3 7//3
f 9//4 48//4 2//4
f 11//1 3//1 2//1
f 13//1 1//1 7//1
f 15//2 6//2 5//2
f 18//2 4//2 16//2
f 19//3 8//3 3//3
f 20//3 66//3 4//3
f 21//4 9//4 1//4
f 22//4 52//4 6//4
f 6//4 52//4 23//4
f 16//4 23//4 24//4
f 2//4 48//4 25//4
f 4//3 66//3 26//3
f 5//3 26//3 27//3
f 7//3 62//3 28//3
f 31//4 45//4 29//4
f 34//4 53//4 32//4
f 37//3 59//3 35//3
f 40//3 67//3 38//3
f 23//4 43//4 41//4
f 43//4 69//4 42//4
f 21//4 46//4 44//4
f 46//4 29//4 45//4
f 48//4 50//4 47//4
f 50//4 70//4 49//4
f 22//4 54//4 51//4
f 54//4 32//4 53//4
f 26//3 57//3 55//3
f 57//3 71//3 56//3
f 19//3 60//3 58//3
f 60//3 35//3 59//3
f 62//3 64//3 61//3
f 64//3 72//3 63//3
f 20//3 68//3 65//3
f 68//3 38//3 67//3
f 69//4 31//4 30//4
f 70//4 34//4 33//4
f 71//3 37//3 36//3
f 72//3 40//3 39//3
f 37//5 71//5 53//5
f 59//6 37//6 34//6
f 58//7 59//7 70//7
f 8//8 58//8 50//8
f 62//2 8//2 48//2
f 64//9 62//9 9//9
f 72//10 64//10 44//10
f 40//11 72//11 45//11
f 67//12 40//12 31//12
f 65//13 67//13 69//13
f 66//14 65//14 43//14
f 26//1 66//1 23//1
f 57//15 26//15 52//15
f 71//16 57//16 51//16
f 75//1 79//1 73//1
f 78//2 80//2 76//2
f 77//17 76//17 73//17
f 78//3 77//3 79//3
f 80//18 78//18 75//18
f 76//4 80//4 74//4
f 83//1 87//1 81//1
f 86//2 88//2 84//2
f 85//17 84//17 81//17
f 86//3 85//3 87//3
f 88//18 86//18 83//18
f 84//4 88//4 82//4
f 91//1 95//1 89//1
f 94//2 104//2 92//2
f 96//4 150//4 95//4
f 97//3 136//3 90//3
f 99//1 91//1 90//1
f 101//1 89//1 95//1
f 103//2 94//2 93//2
f 106//2 92//2 104//2
f 107//4 96//4 91//4
f 108//4 154//4 92//4
f 109//3 97//3 89//3
f 110//3 140//3 94//3
f 94//3 140//3 111//3
f 104//3 111//3 112//3
f 90//3 136//3 113//3
f 92//4 154//4 114//4
f 93//4 114//4 115//4
f 95//4 150//4 116//4
f 119//3 133//3 117//3
f 122//3 141//3 120//3
f 125//4 147//4 123//4
f 128//4 155//4 126//4
f 111//3 131//3 129//3
f 131//3 157//3 130//3
f 109//3 134//3 132//3
f 134//3 117//3 133//3
f 136//3 138//3 135//3
f 138//3 158//3 137//3
f 110//3 142//3 139//3
f 142//3 120//3 141//3
f 114//4 145//4 143//4
f 145//4 159//4 144//4
f 107//4 148//4 146//4
f 148//4 123//4 147//4
f 150//4 152//4 149//4
f 152//4 160//4 151//4
f 108//4 156//4 153//4
f 156//4 126//4 155//4
f 157//3 119//3 118//3
f 158//3 122//3 121//3
f 159//4 125//4 124//4
f 160//4 128//4 127//4
f 125//12 159//12 141//12
f 147//11 125//11 122//11
f 146//10 147//10 158//10
f 96//9 146//9 138//9
f 150//2 96//2 136//2
f 152//8 150//8 97//8
f 160//7 152//7 132//7
f 128//6 160//6 133//6
f 155//5 128//5 119//5
f 153//16 155//16 157//16
f 154//15 153//15 131//15
f 114//1 154//1 111//1
f 145//14 114//14 140//14
f 159//13 145//13 139//13
f 163//1 167//1 161//1
f 166//2 168//2 164//2
f 165//18 164//18 161//18
f 166//4 165//4 167//4
f 168//17 166//17 163//17
f 164//3 168//3 162//3
f 171//1 175//1 169//1
f 174//2 176//2 172//2
f 173//18 172//18 169//18
f 174//4 173//4 175//4
f 176//17 174//17 171//17
f 172//3 176//3 170//3
f 179//18 183//18 177//18
f 182//17 184//17 180//17
f 181//1 180//1 177//1
f 184//2 182//2 179//2
f 187//18 191//18 185//18
f 190//17 192//17 188//17
f 189//1 188//1 185//1
f 192//2 190//2 187//2
f 195//18 199//18 193//18
f 198//17 200//17 196//17
f 197//1 196//1 193//1
f 200//2 198//2 195//2
f 203//17 207//17 201//17
f 206//18 208//18 204//18
f 205//1 204//1 201//1
f 208//2 206//2 203//2
f 211//17 215//17 209//17
f 214//18 216//18 212//18
f 213//1 212//1 209//1
f 216//2 214//2 211//2
f 219//17 223//17 217//17
f 222//18 224//18 220//18
f 221//1 220//1 217//1
f 224//2 222//2 219//2
f 227//1 231//1 225//1
f 230//2 232//2 228//2
f 229//17 228//17 225//17
f 230//3 229//3 231//3
f 232//18 230//18 227//18
f 228//4 232//4 226//4
