# Blender v2.82 (sub 7) OBJ File: ''
# www.blender.org
mtllib 59.mtl
o Cloth_59
v 0.297689 0.534861 -0.001586
v 0.297689 0.000000 -0.001586
v 0.289191 0.000000 -0.050717
v 0.289191 0.534861 -0.050717
v 0.275092 0.000000 -0.093803
v 0.275092 0.534861 -0.093802
v 0.250208 0.000000 -0.133132
v 0.250208 0.534861 -0.133132
v 0.226142 0.000000 -0.174347
v 0.226142 0.534861 -0.174347
v 0.198098 0.000000 -0.213301
v 0.198098 0.534861 -0.213301
v 0.160348 0.000000 -0.247058
v 0.160348 0.534861 -0.247058
v 0.120021 0.000000 -0.274534
v 0.120021 0.534861 -0.274534
v 0.072347 0.000000 -0.295855
v 0.072347 0.534861 -0.295855
v 0.025698 0.000000 -0.301248
v 0.025698 0.534861 -0.301248
v -0.024473 0.000000 -0.300749
v -0.024473 0.534861 -0.300749
v -0.073367 0.000000 -0.289769
v -0.073367 0.534861 -0.289769
v -0.118270 0.000000 -0.272122
v -0.118270 0.534861 -0.272122
v -0.160690 0.000000 -0.244964
v -0.160690 0.534861 -0.244964
v -0.198605 0.000000 -0.213772
v -0.198605 0.534861 -0.213772
v -0.232237 0.000000 -0.182040
v -0.232237 0.534861 -0.182040
v -0.261973 0.000000 -0.142919
v -0.261973 0.534861 -0.142919
v -0.283599 0.000000 -0.099057
v -0.283599 0.534861 -0.099057
v -0.294759 0.000000 -0.060213
v -0.294759 0.534861 -0.060212
v -0.295133 0.000000 -0.001586
v -0.295133 0.534861 -0.001586
v -0.288506 0.000000 0.046615
v -0.288506 0.534861 0.046616
v -0.275350 0.000000 0.093888
v -0.275350 0.534861 0.093888
v -0.254071 0.000000 0.139886
v -0.254071 0.534861 0.139886
v -0.226400 0.000000 0.180948
v -0.226400 0.534861 0.180948
v -0.193004 0.000000 0.216076
v -0.193004 0.534861 0.216076
v -0.158943 0.000000 0.247130
v -0.158943 0.534861 0.247130
v -0.120265 0.000000 0.273317
v -0.120265 0.534861 0.273317
v -0.073949 0.000000 0.289924
v -0.073949 0.534861 0.289924
v -0.022545 0.000000 0.300723
v -0.022545 0.534861 0.300723
v 0.025102 0.000000 0.300821
v 0.025102 0.534861 0.300821
v 0.073428 0.000000 0.286805
v 0.073428 0.534861 0.286805
v 0.120118 0.000000 0.271486
v 0.120118 0.534861 0.271486
v 0.163495 0.000000 0.247919
v 0.163495 0.534861 0.247920
v 0.200038 0.000000 0.221996
v 0.200038 0.534861 0.221996
v 0.239354 0.000000 0.180781
v 0.239354 0.534861 0.180781
v 0.265485 0.000000 0.142214
v 0.265485 0.534861 0.142214
v 0.285379 0.000000 0.097021
v 0.285379 0.534861 0.097021
v 0.296400 0.000000 0.047821
v 0.296400 0.534861 0.047822
v 0.107073 0.000000 -0.019996
v 0.109430 0.000000 -0.001586
v 0.109430 0.534861 -0.001586
v 0.102679 0.000000 -0.036687
v 0.107073 0.534861 -0.019996
v 0.095816 0.000000 -0.052782
v 0.102679 0.534861 -0.036687
v 0.086376 0.000000 -0.068129
v 0.095816 0.534861 -0.052782
v 0.074981 0.000000 -0.082255
v 0.086376 0.534861 -0.068128
v 0.060521 0.000000 -0.093886
v 0.074981 0.534861 -0.082255
v 0.044967 0.000000 -0.102675
v 0.060521 0.534861 -0.093886
v 0.027791 0.000000 -0.107693
v 0.044967 0.534861 -0.102675
v 0.009672 0.000000 -0.110729
v 0.027791 0.534861 -0.107693
v -0.008918 0.000000 -0.110868
v 0.009672 0.534861 -0.110729
v -0.028909 0.000000 -0.107638
v -0.008918 0.534861 -0.110867
v -0.044227 0.000000 -0.100859
v -0.028909 0.534861 -0.107638
v -0.060100 0.000000 -0.091654
v -0.044227 0.534861 -0.100859
v -0.073991 0.000000 -0.080619
v -0.060100 0.534861 -0.091654
v -0.085733 0.000000 -0.067782
v -0.073991 0.534861 -0.080619
v -0.095825 0.000000 -0.052033
v -0.085733 0.534861 -0.067782
v -0.102964 0.000000 -0.036188
v -0.095825 0.534861 -0.052033
v -0.108482 0.000000 -0.019996
v -0.102964 0.534861 -0.036188
v -0.112447 0.000000 -0.001586
v -0.108482 0.534861 -0.019996
v -0.112655 0.000000 0.016685
v -0.112447 0.534861 -0.001586
v -0.108815 0.000000 0.035234
v -0.112655 0.534861 0.016686
v -0.100913 0.000000 0.053200
v -0.108815 0.534861 0.035234
v -0.090613 0.000000 0.069545
v -0.100913 0.534861 0.053200
v -0.078289 0.000000 0.083158
v -0.090613 0.534861 0.069545
v -0.063206 0.000000 0.094609
v -0.078289 0.534861 0.083158
v -0.045018 0.000000 0.104660
v -0.063206 0.534861 0.094609
v -0.028313 0.000000 0.110371
v -0.045018 0.534861 0.104660
v -0.009694 0.000000 0.113407
v -0.028313 0.534861 0.110371
v 0.009561 0.000000 0.113310
v -0.009694 0.534861 0.113407
v 0.029551 0.000000 0.109789
v 0.009561 0.534861 0.113310
v 0.046146 0.000000 0.102414
v 0.029551 0.534861 0.109789
v 0.062296 0.000000 0.093541
v 0.046146 0.534861 0.102414
v 0.076866 0.000000 0.081425
v 0.062296 0.534861 0.093541
v 0.088954 0.000000 0.067050
v 0.076866 0.534861 0.081425
v 0.098034 0.000000 0.051162
v 0.088954 0.534861 0.067050
v 0.105451 0.000000 0.033750
v 0.098034 0.534861 0.051162
v 0.108875 0.000000 0.016117
v 0.105451 0.534861 0.033751
v 0.108875 0.534861 0.016117
v -0.115303 0.534861 0.017129
v -0.111310 0.534861 0.036107
v -0.103200 0.534861 0.054503
v -0.092636 0.534861 0.071222
v -0.080007 0.534861 0.085141
v -0.064634 0.534861 0.096897
v -0.046141 0.534861 0.107197
v -0.029006 0.534861 0.113060
v -0.009875 0.534861 0.116221
v 0.009783 0.534861 0.116124
v 0.030203 0.534861 0.112437
v 0.047255 0.534861 0.104951
v 0.063807 0.534861 0.095857
v 0.078710 0.534861 0.083533
v 0.091214 0.534861 0.068755
v 0.100544 0.534861 0.052521
v 0.108141 0.534861 0.034707
v 0.111689 0.534861 0.016602
v 0.112258 0.534861 -0.001586
v 0.109804 0.534861 -0.020468
v 0.105271 0.534861 -0.037533
v 0.098131 0.534861 -0.053988
v 0.088469 0.534861 -0.069723
v 0.076824 0.534861 -0.084223
v 0.062019 0.534861 -0.096187
v 0.046090 0.534861 -0.105253
v 0.028456 0.534861 -0.110521
v 0.009908 0.534861 -0.113585
v -0.009154 0.534861 -0.113710
v -0.029574 0.534861 -0.110369
v -0.045336 0.534861 -0.103437
v -0.061611 0.534861 -0.093955
v -0.075848 0.534861 -0.082615
v -0.087923 0.534861 -0.069487
v -0.098321 0.534861 -0.053392
v -0.105668 0.534861 -0.037131
v -0.111269 0.534861 -0.020606
v -0.115178 0.534861 -0.001586
v -0.111310 0.000000 0.036107
v -0.115303 0.000000 0.017129
v -0.115178 0.000000 -0.001586
v -0.111269 0.000000 -0.020606
v -0.105668 0.000000 -0.037131
v -0.098321 0.000000 -0.053392
v -0.087923 0.000000 -0.069487
v -0.075848 0.000000 -0.082615
v -0.061611 0.000000 -0.093955
v -0.045336 0.000000 -0.103437
v -0.029574 0.000000 -0.110369
v -0.009154 0.000000 -0.113710
v 0.009908 0.000000 -0.113585
v 0.028456 0.000000 -0.110521
v 0.046090 0.000000 -0.105253
v 0.062019 0.000000 -0.096187
v 0.076824 0.000000 -0.084223
v 0.088469 0.000000 -0.069723
v 0.098131 0.000000 -0.053988
v 0.105271 0.000000 -0.037533
v 0.109804 0.000000 -0.020468
v 0.112258 0.000000 -0.001586
v 0.111689 0.000000 0.016602
v 0.108141 0.000000 0.034707
v 0.100544 0.000000 0.052521
v 0.091214 0.000000 0.068755
v 0.078710 0.000000 0.083532
v 0.063807 0.000000 0.095857
v 0.047255 0.000000 0.104950
v 0.030203 0.000000 0.112437
v 0.009783 0.000000 0.116124
v -0.009875 0.000000 0.116221
v -0.029006 0.000000 0.113060
v -0.046141 0.000000 0.107197
v -0.064634 0.000000 0.096897
v -0.080007 0.000000 0.085141
v -0.092636 0.000000 0.071222
v -0.103200 0.000000 0.054503
vn 0.9854 0.0000 -0.1704
vn 0.9504 0.0000 -0.3110
vn 0.8451 0.0000 -0.5347
vn 0.8636 0.0000 -0.5043
vn 0.8116 0.0000 -0.5843
vn 0.6666 0.0000 -0.7454
vn 0.5631 0.0000 -0.8264
vn 0.4083 0.0000 -0.9129
vn 0.1148 0.0000 -0.9934
vn -0.0099 0.0000 -1.0000
vn -0.2191 0.0000 -0.9757
vn -0.3658 0.0000 -0.9307
vn -0.5392 0.0000 -0.8422
vn -0.6353 0.0000 -0.7723
vn -0.6863 0.0000 -0.7273
vn -0.7961 0.0000 -0.6051
vn -0.8969 0.0000 -0.4422
vn -0.9611 0.0000 -0.2761
vn -1.0000 0.0000 -0.0064
vn -0.9907 0.0000 0.1362
vn -0.9634 -0.0000 0.2681
vn -0.9076 -0.0000 0.4199
vn -0.8293 -0.0000 0.5588
vn -0.7247 -0.0000 0.6890
vn -0.6737 -0.0000 0.7390
vn -0.5606 -0.0000 0.8281
vn -0.3375 -0.0000 0.9413
vn -0.2056 -0.0000 0.9786
vn -0.0020 -0.0000 1.0000
vn 0.2785 -0.0000 0.9604
vn 0.3117 -0.0000 0.9502
vn 0.4774 -0.0000 0.8787
vn 0.5786 -0.0000 0.8156
vn 0.7236 -0.0000 0.6902
vn 0.8279 -0.0000 0.5609
vn 0.9153 -0.0000 0.4029
vn 0.9758 -0.0000 0.2186
vn 0.9997 -0.0000 0.0261
vn -0.9919 0.0000 0.1270
vn -0.9670 -0.0000 0.2546
vn -0.9199 -0.0000 0.3922
vn -0.8518 -0.0000 0.5239
vn -0.7783 -0.0000 0.6279
vn -0.6268 -0.0000 0.7792
vn -0.4919 -0.0000 0.8706
vn -0.2805 -0.0000 0.9599
vn -0.1652 -0.0000 0.9863
vn -0.0074 -0.0000 1.0000
vn 0.1595 -0.0000 0.9872
vn 0.4047 -0.0000 0.9145
vn 0.5017 -0.0000 0.8651
vn 0.6220 -0.0000 0.7830
vn 0.7379 -0.0000 0.6749
vn 0.8420 -0.0000 0.5395
vn 0.9117 -0.0000 0.4108
vn 0.9465 -0.0000 0.3226
vn 0.9776 -0.0000 0.2105
vn 0.9999 -0.0000 0.0114
vn 0.9792 0.0000 -0.2027
vn 0.9154 0.0000 -0.4026
vn 0.8460 0.0000 -0.5332
vn 0.7413 0.0000 -0.6711
vn 0.6047 0.0000 -0.7965
vn 0.4837 0.0000 -0.8752
vn 0.3235 0.0000 -0.9462
vn 0.1610 0.0000 -0.9870
vn -0.0050 0.0000 -1.0000
vn -0.1735 0.0000 -0.9848
vn -0.4061 0.0000 -0.9138
vn -0.4815 0.0000 -0.8764
vn -0.6394 0.0000 -0.7689
vn -0.7654 0.0000 -0.6436
vn -0.8682 0.0000 -0.4962
vn -0.9200 0.0000 -0.3919
vn -0.9817 0.0000 -0.1906
vn -0.9995 -0.0000 -0.0313
vn 0.0000 1.0000 0.0000
vn -0.0000 -1.0000 -0.0000
vn 0.0000 1.0000 -0.0001
vn 0.0000 1.0000 0.0001
usemtl Default_OBJ.028
s off
f 1//1 2//1 3//1
f 4//2 3//2 5//2
f 6//3 5//3 7//3
f 8//4 7//4 9//4
f 10//5 9//5 11//5
f 12//6 11//6 13//6
f 14//7 13//7 15//7
f 16//8 15//8 17//8
f 18//9 17//9 19//9
f 20//10 19//10 21//10
f 22//11 21//11 23//11
f 24//12 23//12 25//12
f 26//13 25//13 27//13
f 28//14 27//14 29//14
f 30//15 29//15 31//15
f 32//16 31//16 33//16
f 34//17 33//17 35//17
f 36//18 35//18 37//18
f 38//19 37//19 39//19
f 40//20 39//20 41//20
f 42//21 41//21 43//21
f 44//22 43//22 45//22
f 46//23 45//23 47//23
f 48//24 47//24 49//24
f 50//25 49//25 51//25
f 52//26 51//26 53//26
f 54//27 53//27 55//27
f 56//28 55//28 57//28
f 58//29 57//29 59//29
f 60//30 59//30 61//30
f 62//31 61//31 63//31
f 64//32 63//32 65//32
f 66//33 65//33 67//33
f 68//34 67//34 69//34
f 70//35 69//35 71//35
f 72//36 71//36 73//36
f 74//37 73//37 75//37
f 76//38 75//38 2//38
f 77//39 78//39 79//39
f 80//40 77//40 81//40
f 82//41 80//41 83//41
f 84//42 82//42 85//42
f 86//43 84//43 87//43
f 88//44 86//44 89//44
f 90//45 88//45 91//45
f 92//46 90//46 93//46
f 94//47 92//47 95//47
f 96//48 94//48 97//48
f 98//49 96//49 99//49
f 100//50 98//50 101//50
f 102//51 100//51 103//51
f 104//52 102//52 105//52
f 106//53 104//53 107//53
f 108//54 106//54 109//54
f 110//55 108//55 111//55
f 112//56 110//56 113//56
f 114//57 112//57 115//57
f 116//58 114//58 117//58
f 118//59 116//59 119//59
f 120//60 118//60 121//60
f 122//61 120//61 123//61
f 124//62 122//62 125//62
f 126//63 124//63 127//63
f 128//64 126//64 129//64
f 130//65 128//65 131//65
f 132//66 130//66 133//66
f 134//67 132//67 135//67
f 136//68 134//68 137//68
f 138//69 136//69 139//69
f 140//70 138//70 141//70
f 142//71 140//71 143//71
f 144//72 142//72 145//72
f 146//73 144//73 147//73
f 148//74 146//74 149//74
f 150//75 148//75 151//75
f 78//76 150//76 152//76
f 153//77 42//77 44//77
f 154//77 44//77 46//77
f 155//77 46//77 48//77
f 156//77 48//77 50//77
f 157//77 50//77 52//77
f 158//77 52//77 54//77
f 159//77 54//77 56//77
f 160//77 56//77 58//77
f 161//77 58//77 60//77
f 162//77 60//77 62//77
f 163//77 62//77 64//77
f 164//77 64//77 66//77
f 165//77 66//77 68//77
f 166//77 68//77 70//77
f 167//77 70//77 72//77
f 168//77 72//77 74//77
f 169//77 74//77 76//77
f 170//77 76//77 1//77
f 171//77 1//77 4//77
f 172//77 4//77 6//77
f 173//77 6//77 8//77
f 174//77 8//77 10//77
f 175//77 10//77 12//77
f 176//77 12//77 14//77
f 177//77 14//77 16//77
f 178//77 16//77 18//77
f 179//77 18//77 20//77
f 180//77 20//77 22//77
f 181//77 22//77 24//77
f 182//77 24//77 26//77
f 183//77 26//77 28//77
f 184//77 28//77 30//77
f 185//77 30//77 32//77
f 186//77 32//77 34//77
f 187//77 34//77 36//77
f 188//77 36//77 38//77
f 189//77 38//77 40//77
f 190//77 40//77 42//77
f 191//78 43//78 41//78
f 192//78 41//78 39//78
f 193//78 39//78 37//78
f 194//78 37//78 35//78
f 195//78 35//78 33//78
f 196//78 33//78 31//78
f 197//78 31//78 29//78
f 198//78 29//78 27//78
f 199//78 27//78 25//78
f 200//78 25//78 23//78
f 201//78 23//78 21//78
f 202//78 21//78 19//78
f 203//78 19//78 17//78
f 204//78 17//78 15//78
f 205//78 15//78 13//78
f 206//78 13//78 11//78
f 207//78 11//78 9//78
f 208//78 9//78 7//78
f 209//78 7//78 5//78
f 210//78 5//78 3//78
f 211//78 3//78 2//78
f 212//78 2//78 75//78
f 213//78 75//78 73//78
f 214//78 73//78 71//78
f 215//78 71//78 69//78
f 216//78 69//78 67//78
f 217//78 67//78 65//78
f 218//78 65//78 63//78
f 219//78 63//78 61//78
f 220//78 61//78 59//78
f 221//78 59//78 57//78
f 222//78 57//78 55//78
f 223//78 55//78 53//78
f 224//78 53//78 51//78
f 225//78 51//78 49//78
f 226//78 49//78 47//78
f 227//78 47//78 45//78
f 228//78 45//78 43//78
f 153//77 154//77 121//77
f 154//77 155//77 123//77
f 155//77 156//77 125//77
f 156//77 157//77 127//77
f 157//77 158//77 129//77
f 158//77 159//77 131//77
f 159//77 160//77 133//77
f 160//77 161//77 135//77
f 161//79 162//79 137//79
f 162//77 163//77 139//77
f 163//77 164//77 141//77
f 164//77 165//77 143//77
f 165//77 166//77 145//77
f 166//77 167//77 147//77
f 167//77 168//77 149//77
f 168//77 169//77 151//77
f 169//77 170//77 152//77
f 170//77 171//77 79//77
f 171//77 172//77 81//77
f 172//77 173//77 83//77
f 173//77 174//77 85//77
f 174//77 175//77 87//77
f 175//77 176//77 89//77
f 176//77 177//77 91//77
f 177//77 178//77 93//77
f 178//77 179//77 95//77
f 179//77 180//77 97//77
f 180//77 181//77 99//77
f 181//77 182//77 101//77
f 182//77 183//77 103//77
f 183//77 184//77 105//77
f 184//77 185//77 107//77
f 185//77 186//77 109//77
f 186//77 187//77 111//77
f 187//77 188//77 113//77
f 188//77 189//77 115//77
f 189//77 190//77 117//77
f 190//77 153//77 119//77
f 191//78 192//78 116//78
f 192//78 193//78 114//78
f 193//78 194//78 112//78
f 194//78 195//78 110//78
f 195//78 196//78 108//78
f 196//78 197//78 106//78
f 197//78 198//78 104//78
f 198//78 199//78 102//78
f 199//78 200//78 100//78
f 200//78 201//78 98//78
f 201//78 202//78 96//78
f 202//78 203//78 94//78
f 203//78 204//78 92//78
f 204//78 205//78 90//78
f 205//78 206//78 88//78
f 206//78 207//78 86//78
f 207//78 208//78 84//78
f 208//78 209//78 82//78
f 209//78 210//78 80//78
f 210//78 211//78 77//78
f 211//78 212//78 78//78
f 212//78 213//78 150//78
f 213//78 214//78 148//78
f 214//78 215//78 146//78
f 215//78 216//78 144//78
f 216//78 217//78 142//78
f 217//78 218//78 140//78
f 218//78 219//78 138//78
f 219//78 220//78 136//78
f 220//78 221//78 134//78
f 221//78 222//78 132//78
f 222//78 223//78 130//78
f 223//78 224//78 128//78
f 224//78 225//78 126//78
f 225//78 226//78 124//78
f 226//78 227//78 122//78
f 227//78 228//78 120//78
f 228//78 191//78 118//78
f 3//1 4//1 1//1
f 5//2 6//2 4//2
f 7//3 8//3 6//3
f 9//4 10//4 8//4
f 11//5 12//5 10//5
f 13//6 14//6 12//6
f 15//7 16//7 14//7
f 17//8 18//8 16//8
f 19//9 20//9 18//9
f 21//10 22//10 20//10
f 23//11 24//11 22//11
f 25//12 26//12 24//12
f 27//13 28//13 26//13
f 29//14 30//14 28//14
f 31//15 32//15 30//15
f 33//16 34//16 32//16
f 35//17 36//17 34//17
f 37//18 38//18 36//18
f 39//19 40//19 38//19
f 41//20 42//20 40//20
f 43//21 44//21 42//21
f 45//22 46//22 44//22
f 47//23 48//23 46//23
f 49//24 50//24 48//24
f 51//25 52//25 50//25
f 53//26 54//26 52//26
f 55//27 56//27 54//27
f 57//28 58//28 56//28
f 59//29 60//29 58//29
f 61//30 62//30 60//30
f 63//31 64//31 62//31
f 65//32 66//32 64//32
f 67//33 68//33 66//33
f 69//34 70//34 68//34
f 71//35 72//35 70//35
f 73//36 74//36 72//36
f 75//37 76//37 74//37
f 2//38 1//38 76//38
f 79//39 81//39 77//39
f 81//40 83//40 80//40
f 83//41 85//41 82//41
f 85//42 87//42 84//42
f 87//43 89//43 86//43
f 89//44 91//44 88//44
f 91//45 93//45 90//45
f 93//46 95//46 92//46
f 95//47 97//47 94//47
f 97//48 99//48 96//48
f 99//49 101//49 98//49
f 101//50 103//50 100//50
f 103//51 105//51 102//51
f 105//52 107//52 104//52
f 107//53 109//53 106//53
f 109//54 111//54 108//54
f 111//55 113//55 110//55
f 113//56 115//56 112//56
f 115//57 117//57 114//57
f 117//58 119//58 116//58
f 119//59 121//59 118//59
f 121//60 123//60 120//60
f 123//61 125//61 122//61
f 125//62 127//62 124//62
f 127//63 129//63 126//63
f 129//64 131//64 128//64
f 131//65 133//65 130//65
f 133//66 135//66 132//66
f 135//67 137//67 134//67
f 137//68 139//68 136//68
f 139//69 141//69 138//69
f 141//70 143//70 140//70
f 143//71 145//71 142//71
f 145//72 147//72 144//72
f 147//73 149//73 146//73
f 149//74 151//74 148//74
f 151//75 152//75 150//75
f 152//76 79//76 78//76
f 44//77 154//77 153//77
f 46//77 155//77 154//77
f 48//77 156//77 155//77
f 50//77 157//77 156//77
f 52//77 158//77 157//77
f 54//77 159//77 158//77
f 56//77 160//77 159//77
f 58//77 161//77 160//77
f 60//77 162//77 161//77
f 62//77 163//77 162//77
f 64//77 164//77 163//77
f 66//77 165//77 164//77
f 68//77 166//77 165//77
f 70//77 167//77 166//77
f 72//77 168//77 167//77
f 74//77 169//77 168//77
f 76//77 170//77 169//77
f 1//77 171//77 170//77
f 4//77 172//77 171//77
f 6//77 173//77 172//77
f 8//77 174//77 173//77
f 10//77 175//77 174//77
f 12//77 176//77 175//77
f 14//77 177//77 176//77
f 16//77 178//77 177//77
f 18//77 179//77 178//77
f 20//77 180//77 179//77
f 22//77 181//77 180//77
f 24//77 182//77 181//77
f 26//77 183//77 182//77
f 28//77 184//77 183//77
f 30//77 185//77 184//77
f 32//77 186//77 185//77
f 34//77 187//77 186//77
f 36//77 188//77 187//77
f 38//77 189//77 188//77
f 40//77 190//77 189//77
f 42//77 153//77 190//77
f 41//78 192//78 191//78
f 39//78 193//78 192//78
f 37//78 194//78 193//78
f 35//78 195//78 194//78
f 33//78 196//78 195//78
f 31//78 197//78 196//78
f 29//78 198//78 197//78
f 27//78 199//78 198//78
f 25//78 200//78 199//78
f 23//78 201//78 200//78
f 21//78 202//78 201//78
f 19//78 203//78 202//78
f 17//78 204//78 203//78
f 15//78 205//78 204//78
f 13//78 206//78 205//78
f 11//78 207//78 206//78
f 9//78 208//78 207//78
f 7//78 209//78 208//78
f 5//78 210//78 209//78
f 3//78 211//78 210//78
f 2//78 212//78 211//78
f 75//78 213//78 212//78
f 73//78 214//78 213//78
f 71//78 215//78 214//78
f 69//78 216//78 215//78
f 67//78 217//78 216//78
f 65//78 218//78 217//78
f 63//78 219//78 218//78
f 61//78 220//78 219//78
f 59//78 221//78 220//78
f 57//78 222//78 221//78
f 55//78 223//78 222//78
f 53//78 224//78 223//78
f 51//78 225//78 224//78
f 49//78 226//78 225//78
f 47//78 227//78 226//78
f 45//78 228//78 227//78
f 43//78 191//78 228//78
f 121//77 119//77 153//77
f 123//77 121//77 154//77
f 125//77 123//77 155//77
f 127//77 125//77 156//77
f 129//77 127//77 157//77
f 131//77 129//77 158//77
f 133//77 131//77 159//77
f 135//77 133//77 160//77
f 137//77 135//77 161//77
f 139//80 137//80 162//80
f 141//77 139//77 163//77
f 143//77 141//77 164//77
f 145//77 143//77 165//77
f 147//77 145//77 166//77
f 149//77 147//77 167//77
f 151//77 149//77 168//77
f 152//77 151//77 169//77
f 79//77 152//77 170//77
f 81//77 79//77 171//77
f 83//77 81//77 172//77
f 85//77 83//77 173//77
f 87//77 85//77 174//77
f 89//77 87//77 175//77
f 91//77 89//77 176//77
f 93//77 91//77 177//77
f 95//77 93//77 178//77
f 97//77 95//77 179//77
f 99//77 97//77 180//77
f 101//77 99//77 181//77
f 103//77 101//77 182//77
f 105//77 103//77 183//77
f 107//77 105//77 184//77
f 109//77 107//77 185//77
f 111//77 109//77 186//77
f 113//77 111//77 187//77
f 115//77 113//77 188//77
f 117//77 115//77 189//77
f 119//77 117//77 190//77
f 116//78 118//78 191//78
f 114//78 116//78 192//78
f 112//78 114//78 193//78
f 110//78 112//78 194//78
f 108//78 110//78 195//78
f 106//78 108//78 196//78
f 104//78 106//78 197//78
f 102//78 104//78 198//78
f 100//78 102//78 199//78
f 98//78 100//78 200//78
f 96//78 98//78 201//78
f 94//78 96//78 202//78
f 92//78 94//78 203//78
f 90//78 92//78 204//78
f 88//78 90//78 205//78
f 86//78 88//78 206//78
f 84//78 86//78 207//78
f 82//78 84//78 208//78
f 80//78 82//78 209//78
f 77//78 80//78 210//78
f 78//78 77//78 211//78
f 150//78 78//78 212//78
f 148//78 150//78 213//78
f 146//78 148//78 214//78
f 144//78 146//78 215//78
f 142//78 144//78 216//78
f 140//78 142//78 217//78
f 138//78 140//78 218//78
f 136//78 138//78 219//78
f 134//78 136//78 220//78
f 132//78 134//78 221//78
f 130//78 132//78 222//78
f 128//78 130//78 223//78
f 126//78 128//78 224//78
f 124//78 126//78 225//78
f 122//78 124//78 226//78
f 120//78 122//78 227//78
f 118//78 120//78 228//78
